<?xml version="1.0" encoding="UTF-8" standalone="no"?>
<!DOCTYPE svg PUBLIC "-//W3C//DTD SVG 1.1//EN"
 "http://www.w3.org/Graphics/SVG/1.1/DTD/svg11.dtd">
<!-- Generated by graphviz version 13.1.0 (20250701.0955)
 -->
<!-- Title: ssd1351_basic_init Pages: 1 -->
<svg width="288pt" height="1662pt"
 viewBox="0.00 0.00 288.00 1662.00" xmlns="http://www.w3.org/2000/svg" xmlns:xlink="http://www.w3.org/1999/xlink">
<g id="graph0" class="graph" transform="scale(1 1) rotate(0) translate(4 1658)">
<title>ssd1351_basic_init</title>
<!-- Node1 -->
<g id="Node000001" class="node">
<title>Node1</title>
<g id="a_Node000001"><a xlink:title="basic example init">
<polygon fill="#999999" stroke="#666666" points="99.25,-819 0,-819 0,-799 99.25,-799 99.25,-819"/>
<text xml:space="preserve" text-anchor="middle" x="49.62" y="-805.5" font-family="Helvetica,sans-Serif" font-size="10.00">ssd1351_basic_init</text>
</a>
</g>
</g>
<!-- Node2 -->
<g id="Node000002" class="node">
<title>Node2</title>
<g id="a_Node000002"><a xlink:href="group__ssd1351__base__driver.html#ga5e6a6c673ee8729d31f8be7aa42a516b" target="_top" xlink:title="clear the display">
<polygon fill="white" stroke="#666666" points="247.25,-1654 168.25,-1654 168.25,-1634 247.25,-1634 247.25,-1654"/>
<text xml:space="preserve" text-anchor="middle" x="207.75" y="-1640.5" font-family="Helvetica,sans-Serif" font-size="10.00">ssd1351_clear</text>
</a>
</g>
</g>
<!-- Node1&#45;&gt;Node2 -->
<g id="edge1_Node000001_Node000002" class="edge">
<title>Node1&#45;&gt;Node2</title>
<g id="a_edge1_Node000001_Node000002"><a xlink:title=" ">
<path fill="none" stroke="#63b8ff" d="M50.99,-819.29C54.31,-909.29 80.13,-1560.51 135.25,-1625 140.94,-1631.65 148.66,-1636.11 156.94,-1639.07"/>
<polygon fill="#63b8ff" stroke="#63b8ff" points="155.98,-1642.44 166.55,-1641.75 157.86,-1635.69 155.98,-1642.44"/>
</a>
</g>
</g>
<!-- Node3 -->
<g id="Node000003" class="node">
<title>Node3</title>
<g id="a_Node000003"><a xlink:href="group__ssd1351__base__driver.html#gafdd55d3ffb8989cfd777bae93d593d57" target="_top" xlink:title="close the chip">
<polygon fill="white" stroke="#666666" points="248.38,-1616 167.12,-1616 167.12,-1596 248.38,-1596 248.38,-1616"/>
<text xml:space="preserve" text-anchor="middle" x="207.75" y="-1602.5" font-family="Helvetica,sans-Serif" font-size="10.00">ssd1351_deinit</text>
</a>
</g>
</g>
<!-- Node1&#45;&gt;Node3 -->
<g id="edge2_Node000001_Node000003" class="edge">
<title>Node1&#45;&gt;Node3</title>
<g id="a_edge2_Node000001_Node000003"><a xlink:title=" ">
<path fill="none" stroke="#63b8ff" d="M51.05,-819.36C54.76,-907.24 82.63,-1525.74 135.25,-1587 140.72,-1593.36 148.05,-1597.72 155.94,-1600.67"/>
<polygon fill="#63b8ff" stroke="#63b8ff" points="154.88,-1604.01 165.46,-1603.46 156.85,-1597.29 154.88,-1604.01"/>
</a>
</g>
</g>
<!-- Node4 -->
<g id="Node000004" class="node">
<title>Node4</title>
<g id="a_Node000004"><a xlink:href="group__ssd1351__base__driver.html#ga677aca50c85886217e8878a14e0787f9" target="_top" xlink:title="initialize the chip">
<polygon fill="white" stroke="#666666" points="243.12,-1578 172.38,-1578 172.38,-1558 243.12,-1558 243.12,-1578"/>
<text xml:space="preserve" text-anchor="middle" x="207.75" y="-1564.5" font-family="Helvetica,sans-Serif" font-size="10.00">ssd1351_init</text>
</a>
</g>
</g>
<!-- Node1&#45;&gt;Node4 -->
<g id="edge3_Node000001_Node000004" class="edge">
<title>Node1&#45;&gt;Node4</title>
<g id="a_edge3_Node000001_Node000004"><a xlink:title=" ">
<path fill="none" stroke="#63b8ff" d="M51.11,-819.39C55.22,-904.93 85.11,-1490.96 135.25,-1549 141.9,-1556.7 151.28,-1561.45 161.06,-1564.34"/>
<polygon fill="#63b8ff" stroke="#63b8ff" points="160.15,-1567.73 170.68,-1566.54 161.71,-1560.9 160.15,-1567.73"/>
</a>
</g>
</g>
<!-- Node5 -->
<g id="Node000005" class="node">
<title>Node5</title>
<g id="a_Node000005"><a xlink:href="group__ssd1351__interface__driver.html#gaf966d34d373bd83bd4f04501161df1c4" target="_top" xlink:title="interface command &amp;&amp; data gpio deinit">
<polygon fill="white" stroke="#666666" points="267.5,-1540 148,-1540 148,-1508 267.5,-1508 267.5,-1540"/>
<text xml:space="preserve" text-anchor="start" x="156" y="-1526.5" font-family="Helvetica,sans-Serif" font-size="10.00">ssd1351_interface_cmd</text>
<text xml:space="preserve" text-anchor="middle" x="207.75" y="-1514.5" font-family="Helvetica,sans-Serif" font-size="10.00">_data_gpio_deinit</text>
</a>
</g>
</g>
<!-- Node1&#45;&gt;Node5 -->
<g id="edge4_Node000001_Node000005" class="edge">
<title>Node1&#45;&gt;Node5</title>
<g id="a_edge4_Node000001_Node000005"><a xlink:title=" ">
<path fill="none" stroke="#63b8ff" d="M50.45,-819.44C49.36,-897.36 46.09,-1388.34 135.25,-1499 136.33,-1500.34 137.49,-1501.62 138.72,-1502.82"/>
<polygon fill="#63b8ff" stroke="#63b8ff" points="136.43,-1505.47 146.46,-1508.88 140.75,-1499.96 136.43,-1505.47"/>
</a>
</g>
</g>
<!-- Node6 -->
<g id="Node000006" class="node">
<title>Node6</title>
<g id="a_Node000006"><a xlink:href="group__ssd1351__interface__driver.html#ga0a6674879145d54ed9a2bd921c40d0d7" target="_top" xlink:title="interface command &amp;&amp; data gpio init">
<polygon fill="white" stroke="#666666" points="267.5,-1490 148,-1490 148,-1458 267.5,-1458 267.5,-1490"/>
<text xml:space="preserve" text-anchor="start" x="156" y="-1476.5" font-family="Helvetica,sans-Serif" font-size="10.00">ssd1351_interface_cmd</text>
<text xml:space="preserve" text-anchor="middle" x="207.75" y="-1464.5" font-family="Helvetica,sans-Serif" font-size="10.00">_data_gpio_init</text>
</a>
</g>
</g>
<!-- Node1&#45;&gt;Node6 -->
<g id="edge5_Node000001_Node000006" class="edge">
<title>Node1&#45;&gt;Node6</title>
<g id="a_edge5_Node000001_Node000006"><a xlink:title=" ">
<path fill="none" stroke="#63b8ff" d="M50.56,-819.15C50.3,-892.93 52.14,-1346.84 135.25,-1449 136.34,-1450.34 137.5,-1451.61 138.74,-1452.81"/>
<polygon fill="#63b8ff" stroke="#63b8ff" points="136.46,-1455.47 146.5,-1458.85 140.76,-1449.95 136.46,-1455.47"/>
</a>
</g>
</g>
<!-- Node7 -->
<g id="Node000007" class="node">
<title>Node7</title>
<g id="a_Node000007"><a xlink:href="group__ssd1351__interface__driver.html#ga958b4c11cbb27a860d374fb3b1f9c4c8" target="_top" xlink:title="interface command &amp;&amp; data gpio write">
<polygon fill="white" stroke="#666666" points="267.5,-1440 148,-1440 148,-1408 267.5,-1408 267.5,-1440"/>
<text xml:space="preserve" text-anchor="start" x="156" y="-1426.5" font-family="Helvetica,sans-Serif" font-size="10.00">ssd1351_interface_cmd</text>
<text xml:space="preserve" text-anchor="middle" x="207.75" y="-1414.5" font-family="Helvetica,sans-Serif" font-size="10.00">_data_gpio_write</text>
</a>
</g>
</g>
<!-- Node1&#45;&gt;Node7 -->
<g id="edge6_Node000001_Node000007" class="edge">
<title>Node1&#45;&gt;Node7</title>
<g id="a_edge6_Node000001_Node000007"><a xlink:title=" ">
<path fill="none" stroke="#63b8ff" d="M50.69,-819.25C51.32,-889.98 58.33,-1305.51 135.25,-1399 136.35,-1400.33 137.52,-1401.59 138.76,-1402.79"/>
<polygon fill="#63b8ff" stroke="#63b8ff" points="136.5,-1405.47 146.55,-1408.81 140.78,-1399.93 136.5,-1405.47"/>
</a>
</g>
</g>
<!-- Node8 -->
<g id="Node000008" class="node">
<title>Node8</title>
<g id="a_Node000008"><a xlink:href="group__ssd1351__interface__driver.html#ga924dc6d41a20df3cb9c8f5e9a5ba3030" target="_top" xlink:title="interface print format data">
<polygon fill="white" stroke="#666666" points="271.25,-1390 144.25,-1390 144.25,-1358 271.25,-1358 271.25,-1390"/>
<text xml:space="preserve" text-anchor="start" x="152.25" y="-1376.5" font-family="Helvetica,sans-Serif" font-size="10.00">ssd1351_interface_debug</text>
<text xml:space="preserve" text-anchor="middle" x="207.75" y="-1364.5" font-family="Helvetica,sans-Serif" font-size="10.00">_print</text>
</a>
</g>
</g>
<!-- Node1&#45;&gt;Node8 -->
<g id="edge7_Node000001_Node000008" class="edge">
<title>Node1&#45;&gt;Node8</title>
<g id="a_edge7_Node000001_Node000008"><a xlink:title=" ">
<path fill="none" stroke="#63b8ff" d="M50.84,-819.24C52.43,-886.41 64.46,-1264.09 135.25,-1349 135.6,-1349.42 135.95,-1349.83 136.31,-1350.23"/>
<polygon fill="#63b8ff" stroke="#63b8ff" points="133.88,-1352.75 143.7,-1356.73 138.5,-1347.49 133.88,-1352.75"/>
</a>
</g>
</g>
<!-- Node9 -->
<g id="Node000009" class="node">
<title>Node9</title>
<g id="a_Node000009"><a xlink:href="group__ssd1351__interface__driver.html#ga24d312e7ab57a3bcbabd0e1b692be7c4" target="_top" xlink:title="interface delay ms">
<polygon fill="white" stroke="#666666" points="279.12,-1340 136.38,-1340 136.38,-1320 279.12,-1320 279.12,-1340"/>
<text xml:space="preserve" text-anchor="middle" x="207.75" y="-1326.5" font-family="Helvetica,sans-Serif" font-size="10.00">ssd1351_interface_delay_ms</text>
</a>
</g>
</g>
<!-- Node1&#45;&gt;Node9 -->
<g id="edge8_Node000001_Node000009" class="edge">
<title>Node1&#45;&gt;Node9</title>
<g id="a_edge8_Node000001_Node000009"><a xlink:title=" ">
<path fill="none" stroke="#63b8ff" d="M50.9,-819.41C52.8,-884.5 66.19,-1235.22 135.25,-1311 135.83,-1311.64 136.44,-1312.26 137.06,-1312.86"/>
<polygon fill="#63b8ff" stroke="#63b8ff" points="134.69,-1315.46 144.79,-1318.68 138.9,-1309.87 134.69,-1315.46"/>
</a>
</g>
</g>
<!-- Node10 -->
<g id="Node000010" class="node">
<title>Node10</title>
<g id="a_Node000010"><a xlink:href="group__ssd1351__interface__driver.html#ga9312a62574a80e08ca8f3a99f7ad7e45" target="_top" xlink:title="interface reset gpio deinit">
<polygon fill="white" stroke="#666666" points="269,-1302 146.5,-1302 146.5,-1270 269,-1270 269,-1302"/>
<text xml:space="preserve" text-anchor="start" x="154.5" y="-1288.5" font-family="Helvetica,sans-Serif" font-size="10.00">ssd1351_interface_reset</text>
<text xml:space="preserve" text-anchor="middle" x="207.75" y="-1276.5" font-family="Helvetica,sans-Serif" font-size="10.00">_gpio_deinit</text>
</a>
</g>
</g>
<!-- Node1&#45;&gt;Node10 -->
<g id="edge9_Node000001_Node000010" class="edge">
<title>Node1&#45;&gt;Node10</title>
<g id="a_edge9_Node000001_Node000010"><a xlink:title=" ">
<path fill="none" stroke="#63b8ff" d="M51.19,-819.48C54.7,-880.66 75.29,-1191.21 135.25,-1261 135.94,-1261.81 136.66,-1262.59 137.41,-1263.34"/>
<polygon fill="#63b8ff" stroke="#63b8ff" points="135.11,-1265.99 145.08,-1269.57 139.52,-1260.55 135.11,-1265.99"/>
</a>
</g>
</g>
<!-- Node11 -->
<g id="Node000011" class="node">
<title>Node11</title>
<g id="a_Node000011"><a xlink:href="group__ssd1351__interface__driver.html#ga4b923e61f8a11082031310fd70c781fa" target="_top" xlink:title="interface reset gpio init">
<polygon fill="white" stroke="#666666" points="269,-1252 146.5,-1252 146.5,-1220 269,-1220 269,-1252"/>
<text xml:space="preserve" text-anchor="start" x="154.5" y="-1238.5" font-family="Helvetica,sans-Serif" font-size="10.00">ssd1351_interface_reset</text>
<text xml:space="preserve" text-anchor="middle" x="207.75" y="-1226.5" font-family="Helvetica,sans-Serif" font-size="10.00">_gpio_init</text>
</a>
</g>
</g>
<!-- Node1&#45;&gt;Node11 -->
<g id="edge10_Node000001_Node000011" class="edge">
<title>Node1&#45;&gt;Node11</title>
<g id="a_edge10_Node000001_Node000011"><a xlink:title=" ">
<path fill="none" stroke="#63b8ff" d="M51.45,-819.42C56.16,-876.39 81.34,-1149.66 135.25,-1211 135.93,-1211.78 136.64,-1212.53 137.38,-1213.26"/>
<polygon fill="#63b8ff" stroke="#63b8ff" points="134.86,-1215.73 144.84,-1219.27 139.25,-1210.27 134.86,-1215.73"/>
</a>
</g>
</g>
<!-- Node12 -->
<g id="Node000012" class="node">
<title>Node12</title>
<g id="a_Node000012"><a xlink:href="group__ssd1351__interface__driver.html#ga9c134325786e266a30c218f486fb0116" target="_top" xlink:title="interface reset gpio write">
<polygon fill="white" stroke="#666666" points="269,-1202 146.5,-1202 146.5,-1170 269,-1170 269,-1202"/>
<text xml:space="preserve" text-anchor="start" x="154.5" y="-1188.5" font-family="Helvetica,sans-Serif" font-size="10.00">ssd1351_interface_reset</text>
<text xml:space="preserve" text-anchor="middle" x="207.75" y="-1176.5" font-family="Helvetica,sans-Serif" font-size="10.00">_gpio_write</text>
</a>
</g>
</g>
<!-- Node1&#45;&gt;Node12 -->
<g id="edge11_Node000001_Node000012" class="edge">
<title>Node1&#45;&gt;Node12</title>
<g id="a_edge11_Node000001_Node000012"><a xlink:title=" ">
<path fill="none" stroke="#63b8ff" d="M51.79,-819.49C57.87,-872.25 87.4,-1108.09 135.25,-1161 135.94,-1161.77 136.66,-1162.51 137.41,-1163.23"/>
<polygon fill="#63b8ff" stroke="#63b8ff" points="134.92,-1165.73 144.94,-1169.19 139.26,-1160.24 134.92,-1165.73"/>
</a>
</g>
</g>
<!-- Node13 -->
<g id="Node000013" class="node">
<title>Node13</title>
<g id="a_Node000013"><a xlink:href="group__ssd1351__interface__driver.html#gaeb6f9972cd2d309348e5251463e978ee" target="_top" xlink:title="interface spi bus deinit">
<polygon fill="white" stroke="#666666" points="264.5,-1152 151,-1152 151,-1120 264.5,-1120 264.5,-1152"/>
<text xml:space="preserve" text-anchor="start" x="159" y="-1138.5" font-family="Helvetica,sans-Serif" font-size="10.00">ssd1351_interface_spi</text>
<text xml:space="preserve" text-anchor="middle" x="207.75" y="-1126.5" font-family="Helvetica,sans-Serif" font-size="10.00">_deinit</text>
</a>
</g>
</g>
<!-- Node1&#45;&gt;Node13 -->
<g id="edge12_Node000001_Node000013" class="edge">
<title>Node1&#45;&gt;Node13</title>
<g id="a_edge12_Node000001_Node000013"><a xlink:title=" ">
<path fill="none" stroke="#63b8ff" d="M50.32,-819.47C49.66,-861.94 52.89,-1023.27 135.25,-1111 137.18,-1113.06 139.29,-1114.94 141.53,-1116.67"/>
<polygon fill="#63b8ff" stroke="#63b8ff" points="139.18,-1119.32 149.48,-1121.79 142.97,-1113.44 139.18,-1119.32"/>
</a>
</g>
</g>
<!-- Node14 -->
<g id="Node000014" class="node">
<title>Node14</title>
<g id="a_Node000014"><a xlink:href="group__ssd1351__interface__driver.html#ga8cf27e56b7977acb2b67c551945883d0" target="_top" xlink:title="interface spi bus init">
<polygon fill="white" stroke="#666666" points="273.5,-1102 142,-1102 142,-1082 273.5,-1082 273.5,-1102"/>
<text xml:space="preserve" text-anchor="middle" x="207.75" y="-1088.5" font-family="Helvetica,sans-Serif" font-size="10.00">ssd1351_interface_spi_init</text>
</a>
</g>
</g>
<!-- Node1&#45;&gt;Node14 -->
<g id="edge13_Node000001_Node000014" class="edge">
<title>Node1&#45;&gt;Node14</title>
<g id="a_edge13_Node000001_Node000014"><a xlink:title=" ">
<path fill="none" stroke="#63b8ff" d="M50.63,-819.4C51.24,-858.8 58.86,-1000.37 135.25,-1073 136.16,-1073.86 137.1,-1074.69 138.07,-1075.48"/>
<polygon fill="#63b8ff" stroke="#63b8ff" points="135.99,-1078.29 146.28,-1080.8 139.8,-1072.42 135.99,-1078.29"/>
</a>
</g>
</g>
<!-- Node15 -->
<g id="Node000015" class="node">
<title>Node15</title>
<g id="a_Node000015"><a xlink:href="group__ssd1351__interface__driver.html#gab3ad5b2b27b3b569e3a846bea63c2766" target="_top" xlink:title="interface spi bus write">
<polygon fill="white" stroke="#666666" points="264.5,-1064 151,-1064 151,-1032 264.5,-1032 264.5,-1064"/>
<text xml:space="preserve" text-anchor="start" x="159" y="-1050.5" font-family="Helvetica,sans-Serif" font-size="10.00">ssd1351_interface_spi</text>
<text xml:space="preserve" text-anchor="middle" x="207.75" y="-1038.5" font-family="Helvetica,sans-Serif" font-size="10.00">_write_cmd</text>
</a>
</g>
</g>
<!-- Node1&#45;&gt;Node15 -->
<g id="edge14_Node000001_Node000015" class="edge">
<title>Node1&#45;&gt;Node15</title>
<g id="a_edge14_Node000001_Node000015"><a xlink:title=" ">
<path fill="none" stroke="#63b8ff" d="M51.67,-819.13C55.72,-853 73.3,-963.49 135.25,-1023 137.06,-1024.74 139,-1026.36 141.04,-1027.87"/>
<polygon fill="#63b8ff" stroke="#63b8ff" points="138.89,-1030.65 149.22,-1032.98 142.6,-1024.71 138.89,-1030.65"/>
</a>
</g>
</g>
<!-- Node16 -->
<g id="Node000016" class="node">
<title>Node16</title>
<g id="a_Node000016"><a xlink:href="group__ssd1351__base__driver.html#gae77fc1fd6df40d6bc7198d59e2ab469e" target="_top" xlink:title="set the address increment">
<polygon fill="white" stroke="#666666" points="263.38,-1014 152.12,-1014 152.12,-982 263.38,-982 263.38,-1014"/>
<text xml:space="preserve" text-anchor="start" x="160.12" y="-1000.5" font-family="Helvetica,sans-Serif" font-size="10.00">ssd1351_set_address</text>
<text xml:space="preserve" text-anchor="middle" x="207.75" y="-988.5" font-family="Helvetica,sans-Serif" font-size="10.00">_increment</text>
</a>
</g>
</g>
<!-- Node1&#45;&gt;Node16 -->
<g id="edge15_Node000001_Node000016" class="edge">
<title>Node1&#45;&gt;Node16</title>
<g id="a_edge15_Node000001_Node000016"><a xlink:title=" ">
<path fill="none" stroke="#63b8ff" d="M53.02,-819.11C60.29,-847.56 84.7,-929.08 135.25,-973 137.3,-974.78 139.49,-976.44 141.78,-977.98"/>
<polygon fill="#63b8ff" stroke="#63b8ff" points="139.93,-980.96 150.34,-982.93 143.43,-974.9 139.93,-980.96"/>
</a>
</g>
</g>
<!-- Node17 -->
<g id="Node000017" class="node">
<title>Node17</title>
<g id="a_Node000017"><a xlink:href="group__ssd1351__base__driver.html#ga63ae7214c17947c423d32d0f940ac584" target="_top" xlink:title="set the display color depth">
<polygon fill="white" stroke="#666666" points="271.25,-964 144.25,-964 144.25,-944 271.25,-944 271.25,-964"/>
<text xml:space="preserve" text-anchor="middle" x="207.75" y="-950.5" font-family="Helvetica,sans-Serif" font-size="10.00">ssd1351_set_color_depth</text>
</a>
</g>
</g>
<!-- Node1&#45;&gt;Node17 -->
<g id="edge16_Node000001_Node000017" class="edge">
<title>Node1&#45;&gt;Node17</title>
<g id="a_edge16_Node000001_Node000017"><a xlink:title=" ">
<path fill="none" stroke="#63b8ff" d="M54.55,-819.33C64.28,-843.51 91.91,-904.09 135.25,-935 137.05,-936.29 138.94,-937.49 140.89,-938.6"/>
<polygon fill="#63b8ff" stroke="#63b8ff" points="139.17,-941.66 149.7,-942.88 142.23,-935.37 139.17,-941.66"/>
</a>
</g>
</g>
<!-- Node18 -->
<g id="Node000018" class="node">
<title>Node18</title>
<g id="a_Node000018"><a xlink:href="group__ssd1351__base__driver.html#ga1e78f8418410e5ce4cd5e690683a3f59" target="_top" xlink:title="set the color sequence">
<polygon fill="white" stroke="#666666" points="280.25,-926 135.25,-926 135.25,-906 280.25,-906 280.25,-926"/>
<text xml:space="preserve" text-anchor="middle" x="207.75" y="-912.5" font-family="Helvetica,sans-Serif" font-size="10.00">ssd1351_set_color_sequence</text>
</a>
</g>
</g>
<!-- Node1&#45;&gt;Node18 -->
<g id="edge17_Node000001_Node000018" class="edge">
<title>Node1&#45;&gt;Node18</title>
<g id="a_edge17_Node000001_Node000018"><a xlink:title=" ">
<path fill="none" stroke="#63b8ff" d="M57.68,-819.46C70.74,-837.99 100.55,-876.56 135.25,-897 137.91,-898.57 140.7,-900 143.57,-901.33"/>
<polygon fill="#63b8ff" stroke="#63b8ff" points="142.25,-904.57 152.84,-905.06 144.87,-898.08 142.25,-904.57"/>
</a>
</g>
</g>
<!-- Node19 -->
<g id="Node000019" class="node">
<title>Node19</title>
<g id="a_Node000019"><a xlink:href="group__ssd1351__base__driver.html#ga8aa9e8df322db7d1572dc0c964ffdbf8" target="_top" xlink:title="set the com split odd or even">
<polygon fill="white" stroke="#666666" points="267.12,-888 148.38,-888 148.38,-856 267.12,-856 267.12,-888"/>
<text xml:space="preserve" text-anchor="start" x="156.38" y="-874.5" font-family="Helvetica,sans-Serif" font-size="10.00">ssd1351_set_com_split</text>
<text xml:space="preserve" text-anchor="middle" x="207.75" y="-862.5" font-family="Helvetica,sans-Serif" font-size="10.00">_odd_even</text>
</a>
</g>
</g>
<!-- Node1&#45;&gt;Node19 -->
<g id="edge18_Node000001_Node000019" class="edge">
<title>Node1&#45;&gt;Node19</title>
<g id="a_edge18_Node000001_Node000019"><a xlink:title=" ">
<path fill="none" stroke="#63b8ff" d="M72.32,-819.36C89.29,-827.31 113.56,-838.36 135.25,-847 139.26,-848.6 143.41,-850.2 147.61,-851.77"/>
<polygon fill="#63b8ff" stroke="#63b8ff" points="146.07,-854.93 156.66,-855.09 148.48,-848.36 146.07,-854.93"/>
</a>
</g>
</g>
<!-- Node20 -->
<g id="Node000020" class="node">
<title>Node20</title>
<g id="a_Node000020"><a xlink:href="group__ssd1351__base__driver.html#ga63520dfd1103f2c6cc5b433ff6f465e9" target="_top" xlink:title="set the command">
<polygon fill="white" stroke="#666666" points="267.5,-838 148,-838 148,-818 267.5,-818 267.5,-838"/>
<text xml:space="preserve" text-anchor="middle" x="207.75" y="-824.5" font-family="Helvetica,sans-Serif" font-size="10.00">ssd1351_set_command</text>
</a>
</g>
</g>
<!-- Node1&#45;&gt;Node20 -->
<g id="edge19_Node000001_Node000020" class="edge">
<title>Node1&#45;&gt;Node20</title>
<g id="a_edge19_Node000001_Node000020"><a xlink:title=" ">
<path fill="none" stroke="#63b8ff" d="M99.6,-814.96C111.23,-816.38 123.88,-817.92 136.27,-819.42"/>
<polygon fill="#63b8ff" stroke="#63b8ff" points="135.69,-822.88 146.04,-820.61 136.53,-815.93 135.69,-822.88"/>
</a>
</g>
</g>
<!-- Node21 -->
<g id="Node000021" class="node">
<title>Node21</title>
<g id="a_Node000021"><a xlink:href="group__ssd1351__base__driver.html#ga3dac2ad66ba4a570cdf21d73b156c3b2" target="_top" xlink:title="set the display contrast">
<polygon fill="white" stroke="#666666" points="263.75,-800 151.75,-800 151.75,-780 263.75,-780 263.75,-800"/>
<text xml:space="preserve" text-anchor="middle" x="207.75" y="-786.5" font-family="Helvetica,sans-Serif" font-size="10.00">ssd1351_set_contrast</text>
</a>
</g>
</g>
<!-- Node1&#45;&gt;Node21 -->
<g id="edge20_Node000001_Node000021" class="edge">
<title>Node1&#45;&gt;Node21</title>
<g id="a_edge20_Node000001_Node000021"><a xlink:title=" ">
<path fill="none" stroke="#63b8ff" d="M99.6,-803.04C112.45,-801.48 126.53,-799.76 140.14,-798.11"/>
<polygon fill="#63b8ff" stroke="#63b8ff" points="140.42,-801.6 149.92,-796.92 139.57,-794.65 140.42,-801.6"/>
</a>
</g>
</g>
<!-- Node22 -->
<g id="Node000022" class="node">
<title>Node22</title>
<g id="a_Node000022"><a xlink:href="group__ssd1351__base__driver.html#gacb17080ac2024e77d0b2d61eacfa4cd2" target="_top" xlink:title="set the display mode">
<polygon fill="white" stroke="#666666" points="276.12,-762 139.38,-762 139.38,-742 276.12,-742 276.12,-762"/>
<text xml:space="preserve" text-anchor="middle" x="207.75" y="-748.5" font-family="Helvetica,sans-Serif" font-size="10.00">ssd1351_set_display_mode</text>
</a>
</g>
</g>
<!-- Node1&#45;&gt;Node22 -->
<g id="edge21_Node000001_Node000022" class="edge">
<title>Node1&#45;&gt;Node22</title>
<g id="a_edge21_Node000001_Node000022"><a xlink:title=" ">
<path fill="none" stroke="#63b8ff" d="M71.45,-798.5C88.35,-790.27 112.94,-778.92 135.25,-771 140.63,-769.09 146.31,-767.27 152,-765.57"/>
<polygon fill="#63b8ff" stroke="#63b8ff" points="152.82,-768.97 161.47,-762.86 150.89,-762.24 152.82,-768.97"/>
</a>
</g>
</g>
<!-- Node23 -->
<g id="Node000023" class="node">
<title>Node23</title>
<g id="a_Node000023"><a xlink:href="group__ssd1351__base__driver.html#ga5f65bb2a75e9ab5c73d18abd5b8c1825" target="_top" xlink:title="set the display offset">
<polygon fill="white" stroke="#666666" points="261.5,-724 154,-724 154,-692 261.5,-692 261.5,-724"/>
<text xml:space="preserve" text-anchor="start" x="162" y="-710.5" font-family="Helvetica,sans-Serif" font-size="10.00">ssd1351_set_display</text>
<text xml:space="preserve" text-anchor="middle" x="207.75" y="-698.5" font-family="Helvetica,sans-Serif" font-size="10.00">_offset</text>
</a>
</g>
</g>
<!-- Node1&#45;&gt;Node23 -->
<g id="edge22_Node000001_Node000023" class="edge">
<title>Node1&#45;&gt;Node23</title>
<g id="a_edge22_Node000001_Node000023"><a xlink:title=" ">
<path fill="none" stroke="#63b8ff" d="M59.52,-798.74C73.94,-782.67 103.98,-751.5 135.25,-733 137.87,-731.45 140.59,-729.98 143.39,-728.58"/>
<polygon fill="#63b8ff" stroke="#63b8ff" points="144.72,-731.82 152.36,-724.48 141.81,-725.46 144.72,-731.82"/>
</a>
</g>
</g>
<!-- Node24 -->
<g id="Node000024" class="node">
<title>Node24</title>
<g id="a_Node000024"><a xlink:href="group__ssd1351__base__driver.html#gac335f8cbd9bf4885304ad09c6681437a" target="_top" xlink:title="set the display start line">
<polygon fill="white" stroke="#666666" points="261.5,-674 154,-674 154,-642 261.5,-642 261.5,-674"/>
<text xml:space="preserve" text-anchor="start" x="162" y="-660.5" font-family="Helvetica,sans-Serif" font-size="10.00">ssd1351_set_display</text>
<text xml:space="preserve" text-anchor="middle" x="207.75" y="-648.5" font-family="Helvetica,sans-Serif" font-size="10.00">_start_line</text>
</a>
</g>
</g>
<!-- Node1&#45;&gt;Node24 -->
<g id="edge23_Node000001_Node000024" class="edge">
<title>Node1&#45;&gt;Node24</title>
<g id="a_edge23_Node000001_Node000024"><a xlink:title=" ">
<path fill="none" stroke="#63b8ff" d="M54.86,-798.54C65.07,-774.59 93.34,-715.38 135.25,-683 137.84,-681 140.59,-679.16 143.46,-677.45"/>
<polygon fill="#63b8ff" stroke="#63b8ff" points="144.98,-680.61 152.24,-672.89 141.75,-674.4 144.98,-680.61"/>
</a>
</g>
</g>
<!-- Node25 -->
<g id="Node000025" class="node">
<title>Node25</title>
<g id="a_Node000025"><a xlink:href="group__ssd1351__base__driver.html#ga9d05e320adaaffc5269ec8c680c5576f" target="_top" xlink:title="set the front clock oscillator frequency">
<polygon fill="white" stroke="#666666" points="270.12,-624 145.38,-624 145.38,-592 270.12,-592 270.12,-624"/>
<text xml:space="preserve" text-anchor="start" x="153.38" y="-610.5" font-family="Helvetica,sans-Serif" font-size="10.00">ssd1351_set_front_clock</text>
<text xml:space="preserve" text-anchor="middle" x="207.75" y="-598.5" font-family="Helvetica,sans-Serif" font-size="10.00">_oscillator_frequency</text>
</a>
</g>
</g>
<!-- Node1&#45;&gt;Node25 -->
<g id="edge24_Node000001_Node000025" class="edge">
<title>Node1&#45;&gt;Node25</title>
<g id="a_edge24_Node000001_Node000025"><a xlink:title=" ">
<path fill="none" stroke="#63b8ff" d="M52.7,-798.59C59.23,-768.49 82.17,-680.45 135.25,-633 136.16,-632.19 137.09,-631.4 138.05,-630.64"/>
<polygon fill="#63b8ff" stroke="#63b8ff" points="139.65,-633.79 146.01,-625.31 135.75,-627.97 139.65,-633.79"/>
</a>
</g>
</g>
<!-- Node26 -->
<g id="Node000026" class="node">
<title>Node26</title>
<g id="a_Node000026"><a xlink:href="group__ssd1351__base__driver.html#ga7a07dccbc4b7aceb752561422d45cc01" target="_top" xlink:title="set the gpio pin">
<polygon fill="white" stroke="#666666" points="255.12,-574 160.38,-574 160.38,-554 255.12,-554 255.12,-574"/>
<text xml:space="preserve" text-anchor="middle" x="207.75" y="-560.5" font-family="Helvetica,sans-Serif" font-size="10.00">ssd1351_set_gpio</text>
</a>
</g>
</g>
<!-- Node1&#45;&gt;Node26 -->
<g id="edge25_Node000001_Node000026" class="edge">
<title>Node1&#45;&gt;Node26</title>
<g id="a_edge25_Node000001_Node000026"><a xlink:title=" ">
<path fill="none" stroke="#63b8ff" d="M51.27,-798.62C54.05,-762.88 68.18,-643.76 135.25,-583 139.48,-579.16 144.41,-576.09 149.65,-573.62"/>
<polygon fill="#63b8ff" stroke="#63b8ff" points="150.56,-577.02 158.62,-570.14 148.03,-570.5 150.56,-577.02"/>
</a>
</g>
</g>
<!-- Node27 -->
<g id="Node000027" class="node">
<title>Node27</title>
<g id="a_Node000027"><a xlink:href="group__ssd1351__base__driver.html#gafc7cbe0f53f7925ab008de4705539bf9" target="_top" xlink:title="set the gray scale pulse width">
<polygon fill="white" stroke="#666666" points="269.75,-536 145.75,-536 145.75,-504 269.75,-504 269.75,-536"/>
<text xml:space="preserve" text-anchor="start" x="153.75" y="-522.5" font-family="Helvetica,sans-Serif" font-size="10.00">ssd1351_set_gray_scale</text>
<text xml:space="preserve" text-anchor="middle" x="207.75" y="-510.5" font-family="Helvetica,sans-Serif" font-size="10.00">_pulse_width</text>
</a>
</g>
</g>
<!-- Node1&#45;&gt;Node27 -->
<g id="edge26_Node000001_Node000027" class="edge">
<title>Node1&#45;&gt;Node27</title>
<g id="a_edge26_Node000001_Node000027"><a xlink:title=" ">
<path fill="none" stroke="#63b8ff" d="M50.82,-798.51C52.1,-759.39 61.87,-620.33 135.25,-545 135.85,-544.38 136.47,-543.78 137.1,-543.19"/>
<polygon fill="#63b8ff" stroke="#63b8ff" points="139.04,-546.12 144.87,-537.27 134.8,-540.55 139.04,-546.12"/>
</a>
</g>
</g>
<!-- Node28 -->
<g id="Node000028" class="node">
<title>Node28</title>
<g id="a_Node000028"><a xlink:href="group__ssd1351__base__driver.html#ga0156a8bda6b53798b3580ebb4d4956d8" target="_top" xlink:title="set the master contrast current">
<polygon fill="white" stroke="#666666" points="261.12,-486 154.38,-486 154.38,-454 261.12,-454 261.12,-486"/>
<text xml:space="preserve" text-anchor="start" x="162.38" y="-472.5" font-family="Helvetica,sans-Serif" font-size="10.00">ssd1351_set_master</text>
<text xml:space="preserve" text-anchor="middle" x="207.75" y="-460.5" font-family="Helvetica,sans-Serif" font-size="10.00">_contrast_current</text>
</a>
</g>
</g>
<!-- Node1&#45;&gt;Node28 -->
<g id="edge27_Node000001_Node000028" class="edge">
<title>Node1&#45;&gt;Node28</title>
<g id="a_edge27_Node000001_Node000028"><a xlink:title=" ">
<path fill="none" stroke="#63b8ff" d="M50.19,-798.71C48.95,-755.52 49.92,-586.81 135.25,-495 137.93,-492.12 140.95,-489.57 144.21,-487.32"/>
<polygon fill="#63b8ff" stroke="#63b8ff" points="145.7,-490.5 152.61,-482.46 142.2,-484.44 145.7,-490.5"/>
</a>
</g>
</g>
<!-- Node29 -->
<g id="Node000029" class="node">
<title>Node29</title>
<g id="a_Node000029"><a xlink:href="group__ssd1351__base__driver.html#gae3dab5fb1674ea80bc092d7fea6c4869" target="_top" xlink:title="set the mux ratio">
<polygon fill="white" stroke="#666666" points="267.5,-436 148,-436 148,-416 267.5,-416 267.5,-436"/>
<text xml:space="preserve" text-anchor="middle" x="207.75" y="-422.5" font-family="Helvetica,sans-Serif" font-size="10.00">ssd1351_set_mux_ratio</text>
</a>
</g>
</g>
<!-- Node1&#45;&gt;Node29 -->
<g id="edge28_Node000001_Node000029" class="edge">
<title>Node1&#45;&gt;Node29</title>
<g id="a_edge28_Node000001_Node000029"><a xlink:title=" ">
<path fill="none" stroke="#63b8ff" d="M51.59,-798.8C56.86,-745.35 83.78,-498.11 135.25,-445 136.26,-443.96 137.31,-442.98 138.41,-442.05"/>
<polygon fill="#63b8ff" stroke="#63b8ff" points="139.98,-445.21 146.32,-436.72 136.07,-439.4 139.98,-445.21"/>
</a>
</g>
</g>
<!-- Node30 -->
<g id="Node000030" class="node">
<title>Node30</title>
<g id="a_Node000030"><a xlink:href="group__ssd1351__base__driver.html#ga7414698f9b10c83db37737c10c62a99f" target="_top" xlink:title="set the interface parallel bits">
<polygon fill="white" stroke="#666666" points="272,-398 143.5,-398 143.5,-378 272,-378 272,-398"/>
<text xml:space="preserve" text-anchor="middle" x="207.75" y="-384.5" font-family="Helvetica,sans-Serif" font-size="10.00">ssd1351_set_parallel_bits</text>
</a>
</g>
</g>
<!-- Node1&#45;&gt;Node30 -->
<g id="edge29_Node000001_Node000030" class="edge">
<title>Node1&#45;&gt;Node30</title>
<g id="a_edge29_Node000001_Node000030"><a xlink:title=" ">
<path fill="none" stroke="#63b8ff" d="M51.37,-798.5C55.68,-741.17 79.03,-466.23 135.25,-407 135.97,-406.25 136.71,-405.52 137.47,-404.82"/>
<polygon fill="#63b8ff" stroke="#63b8ff" points="139.17,-407.91 145.25,-399.24 135.09,-402.23 139.17,-407.91"/>
</a>
</g>
</g>
<!-- Node31 -->
<g id="Node000031" class="node">
<title>Node31</title>
<g id="a_Node000031"><a xlink:href="group__ssd1351__base__driver.html#gaad7cac9c8e2466535bccda6061bfb1e5" target="_top" xlink:title="set the phase period">
<polygon fill="white" stroke="#666666" points="275,-360 140.5,-360 140.5,-340 275,-340 275,-360"/>
<text xml:space="preserve" text-anchor="middle" x="207.75" y="-346.5" font-family="Helvetica,sans-Serif" font-size="10.00">ssd1351_set_phase_period</text>
</a>
</g>
</g>
<!-- Node1&#45;&gt;Node31 -->
<g id="edge30_Node000001_Node000031" class="edge">
<title>Node1&#45;&gt;Node31</title>
<g id="a_edge30_Node000001_Node000031"><a xlink:title=" ">
<path fill="none" stroke="#63b8ff" d="M51.16,-798.72C54.46,-738.77 74.1,-434.56 135.25,-369 135.84,-368.37 136.45,-367.75 137.08,-367.16"/>
<polygon fill="#63b8ff" stroke="#63b8ff" points="138.91,-370.15 144.87,-361.39 134.75,-364.53 138.91,-370.15"/>
</a>
</g>
</g>
<!-- Node32 -->
<g id="Node000032" class="node">
<title>Node32</title>
<g id="a_Node000032"><a xlink:href="group__ssd1351__base__driver.html#gaa6575dd6ecdb3698c2ac70f6727c9679" target="_top" xlink:title="set the pre charge voltage">
<polygon fill="white" stroke="#666666" points="270.12,-322 145.38,-322 145.38,-290 270.12,-290 270.12,-322"/>
<text xml:space="preserve" text-anchor="start" x="153.38" y="-308.5" font-family="Helvetica,sans-Serif" font-size="10.00">ssd1351_set_pre_charge</text>
<text xml:space="preserve" text-anchor="middle" x="207.75" y="-296.5" font-family="Helvetica,sans-Serif" font-size="10.00">_voltage</text>
</a>
</g>
</g>
<!-- Node1&#45;&gt;Node32 -->
<g id="edge31_Node000001_Node000032" class="edge">
<title>Node1&#45;&gt;Node32</title>
<g id="a_edge31_Node000001_Node000032"><a xlink:title=" ">
<path fill="none" stroke="#63b8ff" d="M51.07,-798.75C53.95,-736.11 72.05,-405.31 135.25,-331 135.6,-330.59 135.96,-330.18 136.33,-329.78"/>
<polygon fill="#63b8ff" stroke="#63b8ff" points="138.5,-332.52 143.77,-323.33 133.92,-327.24 138.5,-332.52"/>
</a>
</g>
</g>
<!-- Node33 -->
<g id="Node000033" class="node">
<title>Node33</title>
<g id="a_Node000033"><a xlink:href="group__ssd1351__base__driver.html#ga0b43bfd5641446bfd202a8a9f249b54a" target="_top" xlink:title="set the scan mode">
<polygon fill="white" stroke="#666666" points="271.25,-272 144.25,-272 144.25,-252 271.25,-252 271.25,-272"/>
<text xml:space="preserve" text-anchor="middle" x="207.75" y="-258.5" font-family="Helvetica,sans-Serif" font-size="10.00">ssd1351_set_scan_mode</text>
</a>
</g>
</g>
<!-- Node1&#45;&gt;Node33 -->
<g id="edge32_Node000001_Node000033" class="edge">
<title>Node1&#45;&gt;Node33</title>
<g id="a_edge32_Node000001_Node000033"><a xlink:title=" ">
<path fill="none" stroke="#63b8ff" d="M50.8,-798.92C52.12,-732.8 62.72,-361.23 135.25,-281 135.83,-280.36 136.43,-279.73 137.05,-279.13"/>
<polygon fill="#63b8ff" stroke="#63b8ff" points="138.9,-282.12 144.76,-273.29 134.67,-276.54 138.9,-282.12"/>
</a>
</g>
</g>
<!-- Node34 -->
<g id="Node000034" class="node">
<title>Node34</title>
<g id="a_Node000034"><a xlink:href="group__ssd1351__base__driver.html#ga9489f71c69ce572fa79acdb0ac0a84a2" target="_top" xlink:title="set the second pre charge period">
<polygon fill="white" stroke="#666666" points="261.88,-234 153.62,-234 153.62,-202 261.88,-202 261.88,-234"/>
<text xml:space="preserve" text-anchor="start" x="161.62" y="-220.5" font-family="Helvetica,sans-Serif" font-size="10.00">ssd1351_set_second</text>
<text xml:space="preserve" text-anchor="middle" x="207.75" y="-208.5" font-family="Helvetica,sans-Serif" font-size="10.00">_pre_charge_period</text>
</a>
</g>
</g>
<!-- Node1&#45;&gt;Node34 -->
<g id="edge33_Node000001_Node000034" class="edge">
<title>Node1&#45;&gt;Node34</title>
<g id="a_edge33_Node000001_Node000034"><a xlink:title=" ">
<path fill="none" stroke="#63b8ff" d="M50.76,-798.72C51.85,-729.59 61.29,-332.36 135.25,-243 137.68,-240.06 140.48,-237.47 143.53,-235.18"/>
<polygon fill="#63b8ff" stroke="#63b8ff" points="145.33,-238.18 152.03,-229.98 141.68,-232.21 145.33,-238.18"/>
</a>
</g>
</g>
<!-- Node35 -->
<g id="Node000035" class="node">
<title>Node35</title>
<g id="a_Node000035"><a xlink:href="group__ssd1351__base__driver.html#gadcf5ec2513959b74a9937d4efd8f28e1" target="_top" xlink:title="set the seg0 map">
<polygon fill="white" stroke="#666666" points="268.62,-184 146.88,-184 146.88,-164 268.62,-164 268.62,-184"/>
<text xml:space="preserve" text-anchor="middle" x="207.75" y="-170.5" font-family="Helvetica,sans-Serif" font-size="10.00">ssd1351_set_seg0_map</text>
</a>
</g>
</g>
<!-- Node1&#45;&gt;Node35 -->
<g id="edge34_Node000001_Node000035" class="edge">
<title>Node1&#45;&gt;Node35</title>
<g id="a_edge34_Node000001_Node000035"><a xlink:title=" ">
<path fill="none" stroke="#63b8ff" d="M50.54,-798.7C50.16,-725.81 51.43,-287.84 135.25,-193 135.96,-192.2 136.69,-191.43 137.46,-190.69"/>
<polygon fill="#63b8ff" stroke="#63b8ff" points="139.41,-193.61 145.33,-184.82 135.22,-188 139.41,-193.61"/>
</a>
</g>
</g>
<!-- Node36 -->
<g id="Node000036" class="node">
<title>Node36</title>
<g id="a_Node000036"><a xlink:href="group__ssd1351__base__driver.html#gafcd1e8e5778a67dbe6f13862dc31cc8a" target="_top" xlink:title="set the segment low voltage">
<polygon fill="white" stroke="#666666" points="264.88,-146 150.62,-146 150.62,-114 264.88,-114 264.88,-146"/>
<text xml:space="preserve" text-anchor="start" x="158.62" y="-132.5" font-family="Helvetica,sans-Serif" font-size="10.00">ssd1351_set_segment</text>
<text xml:space="preserve" text-anchor="middle" x="207.75" y="-120.5" font-family="Helvetica,sans-Serif" font-size="10.00">_low_voltage</text>
</a>
</g>
</g>
<!-- Node1&#45;&gt;Node36 -->
<g id="edge35_Node000001_Node000036" class="edge">
<title>Node1&#45;&gt;Node36</title>
<g id="a_edge35_Node000001_Node000036"><a xlink:title=" ">
<path fill="none" stroke="#63b8ff" d="M50.53,-798.63C50.03,-723.24 50.5,-259.47 135.25,-155 137.06,-152.77 139.09,-150.73 141.27,-148.88"/>
<polygon fill="#63b8ff" stroke="#63b8ff" points="142.91,-152 149.17,-143.45 138.94,-146.23 142.91,-152"/>
</a>
</g>
</g>
<!-- Node37 -->
<g id="Node000037" class="node">
<title>Node37</title>
<g id="a_Node000037"><a xlink:href="group__ssd1351__base__driver.html#gad8322c0f07059141b0f622d33e750b64" target="_top" xlink:title="set the select vdd">
<polygon fill="white" stroke="#666666" points="269.75,-96 145.75,-96 145.75,-76 269.75,-76 269.75,-96"/>
<text xml:space="preserve" text-anchor="middle" x="207.75" y="-82.5" font-family="Helvetica,sans-Serif" font-size="10.00">ssd1351_set_select_vdd</text>
</a>
</g>
</g>
<!-- Node1&#45;&gt;Node37 -->
<g id="edge36_Node000001_Node000037" class="edge">
<title>Node1&#45;&gt;Node37</title>
<g id="a_edge36_Node000001_Node000037"><a xlink:title=" ">
<path fill="none" stroke="#63b8ff" d="M51.18,-798.59C55.69,-715.38 87.46,-160 135.25,-105 135.71,-104.47 136.18,-103.95 136.67,-103.45"/>
<polygon fill="#63b8ff" stroke="#63b8ff" points="138.65,-106.35 144.3,-97.39 134.29,-100.87 138.65,-106.35"/>
</a>
</g>
</g>
<!-- Node38 -->
<g id="Node000038" class="node">
<title>Node38</title>
<g id="a_Node000038"><a xlink:href="group__ssd1351__base__driver.html#gae2626858ff3be0d8845807fefb4d4ba7" target="_top" xlink:title="set the sleep mode">
<polygon fill="white" stroke="#666666" points="272.38,-58 143.12,-58 143.12,-38 272.38,-38 272.38,-58"/>
<text xml:space="preserve" text-anchor="middle" x="207.75" y="-44.5" font-family="Helvetica,sans-Serif" font-size="10.00">ssd1351_set_sleep_mode</text>
</a>
</g>
</g>
<!-- Node1&#45;&gt;Node38 -->
<g id="edge37_Node000001_Node000038" class="edge">
<title>Node1&#45;&gt;Node38</title>
<g id="a_edge37_Node000001_Node000038"><a xlink:title=" ">
<path fill="none" stroke="#63b8ff" d="M51.11,-798.58C55.2,-712.81 84.99,-125.2 135.25,-67 135.71,-66.47 136.18,-65.95 136.67,-65.45"/>
<polygon fill="#63b8ff" stroke="#63b8ff" points="138.65,-68.34 144.28,-59.37 134.28,-62.87 138.65,-68.34"/>
</a>
</g>
</g>
<!-- Node39 -->
<g id="Node000039" class="node">
<title>Node39</title>
<g id="a_Node000039"><a xlink:href="group__ssd1351__base__driver.html#gaaba8d918faded85b5448a9f44dbb4746" target="_top" xlink:title="set the vcomh voltage">
<polygon fill="white" stroke="#666666" points="279.12,-20 136.38,-20 136.38,0 279.12,0 279.12,-20"/>
<text xml:space="preserve" text-anchor="middle" x="207.75" y="-6.5" font-family="Helvetica,sans-Serif" font-size="10.00">ssd1351_set_vcomh_voltage</text>
</a>
</g>
</g>
<!-- Node1&#45;&gt;Node39 -->
<g id="edge38_Node000001_Node000039" class="edge">
<title>Node1&#45;&gt;Node39</title>
<g id="a_edge38_Node000001_Node000039"><a xlink:title=" ">
<path fill="none" stroke="#63b8ff" d="M51.05,-798.61C54.74,-710.51 82.5,-90.42 135.25,-29 135.71,-28.47 136.18,-27.95 136.66,-27.44"/>
<polygon fill="#63b8ff" stroke="#63b8ff" points="138.65,-30.34 144.26,-21.35 134.27,-24.88 138.65,-30.34"/>
</a>
</g>
</g>
</g>
</svg>
