<?xml version="1.0" encoding="UTF-8" standalone="no"?>
<!DOCTYPE svg PUBLIC "-//W3C//DTD SVG 1.1//EN"
 "http://www.w3.org/Graphics/SVG/1.1/DTD/svg11.dtd">
<!-- Generated by graphviz version 13.1.0 (20250701.0955)
 -->
<!-- Title: ssd1351_advance_init Pages: 1 -->
<svg width="302pt" height="1662pt"
 viewBox="0.00 0.00 302.00 1662.00" xmlns="http://www.w3.org/2000/svg" xmlns:xlink="http://www.w3.org/1999/xlink">
<g id="graph0" class="graph" transform="scale(1 1) rotate(0) translate(4 1658)">
<title>ssd1351_advance_init</title>
<!-- Node1 -->
<g id="Node000001" class="node">
<title>Node1</title>
<g id="a_Node000001"><a xlink:title="advance example init">
<polygon fill="#999999" stroke="#666666" points="112.75,-819 0,-819 0,-799 112.75,-799 112.75,-819"/>
<text xml:space="preserve" text-anchor="middle" x="56.38" y="-805.5" font-family="Helvetica,sans-Serif" font-size="10.00">ssd1351_advance_init</text>
</a>
</g>
</g>
<!-- Node2 -->
<g id="Node000002" class="node">
<title>Node2</title>
<g id="a_Node000002"><a xlink:href="group__ssd1351__base__driver.html#ga5e6a6c673ee8729d31f8be7aa42a516b" target="_top" xlink:title="clear the display">
<polygon fill="white" stroke="#666666" points="260.75,-1654 181.75,-1654 181.75,-1634 260.75,-1634 260.75,-1654"/>
<text xml:space="preserve" text-anchor="middle" x="221.25" y="-1640.5" font-family="Helvetica,sans-Serif" font-size="10.00">ssd1351_clear</text>
</a>
</g>
</g>
<!-- Node1&#45;&gt;Node2 -->
<g id="edge1_Node000001_Node000002" class="edge">
<title>Node1&#45;&gt;Node2</title>
<g id="a_edge1_Node000001_Node000002"><a xlink:title=" ">
<path fill="none" stroke="#63b8ff" d="M57.83,-819.3C61.92,-909.31 93.32,-1560.68 148.75,-1625 154.46,-1631.63 162.2,-1636.08 170.48,-1639.03"/>
<polygon fill="#63b8ff" stroke="#63b8ff" points="169.52,-1642.4 180.09,-1641.71 171.4,-1635.66 169.52,-1642.4"/>
</a>
</g>
</g>
<!-- Node3 -->
<g id="Node000003" class="node">
<title>Node3</title>
<g id="a_Node000003"><a xlink:href="group__ssd1351__base__driver.html#gafdd55d3ffb8989cfd777bae93d593d57" target="_top" xlink:title="close the chip">
<polygon fill="white" stroke="#666666" points="261.88,-1616 180.62,-1616 180.62,-1596 261.88,-1596 261.88,-1616"/>
<text xml:space="preserve" text-anchor="middle" x="221.25" y="-1602.5" font-family="Helvetica,sans-Serif" font-size="10.00">ssd1351_deinit</text>
</a>
</g>
</g>
<!-- Node1&#45;&gt;Node3 -->
<g id="edge2_Node000001_Node000003" class="edge">
<title>Node1&#45;&gt;Node3</title>
<g id="a_edge2_Node000001_Node000003"><a xlink:title=" ">
<path fill="none" stroke="#63b8ff" d="M57.89,-819.37C62.39,-907.26 95.82,-1525.91 148.75,-1587 154.24,-1593.34 161.59,-1597.68 169.48,-1600.63"/>
<polygon fill="#63b8ff" stroke="#63b8ff" points="168.43,-1603.97 179.01,-1603.42 170.4,-1597.25 168.43,-1603.97"/>
</a>
</g>
</g>
<!-- Node4 -->
<g id="Node000004" class="node">
<title>Node4</title>
<g id="a_Node000004"><a xlink:href="group__ssd1351__base__driver.html#ga677aca50c85886217e8878a14e0787f9" target="_top" xlink:title="initialize the chip">
<polygon fill="white" stroke="#666666" points="256.62,-1578 185.88,-1578 185.88,-1558 256.62,-1558 256.62,-1578"/>
<text xml:space="preserve" text-anchor="middle" x="221.25" y="-1564.5" font-family="Helvetica,sans-Serif" font-size="10.00">ssd1351_init</text>
</a>
</g>
</g>
<!-- Node1&#45;&gt;Node4 -->
<g id="edge3_Node000001_Node000004" class="edge">
<title>Node1&#45;&gt;Node4</title>
<g id="a_edge3_Node000001_Node000004"><a xlink:title=" ">
<path fill="none" stroke="#63b8ff" d="M57.96,-819.4C62.88,-904.95 98.3,-1491.12 148.75,-1549 155.43,-1556.67 164.83,-1561.41 174.61,-1564.3"/>
<polygon fill="#63b8ff" stroke="#63b8ff" points="173.69,-1567.68 184.22,-1566.5 175.26,-1560.86 173.69,-1567.68"/>
</a>
</g>
</g>
<!-- Node5 -->
<g id="Node000005" class="node">
<title>Node5</title>
<g id="a_Node000005"><a xlink:href="group__ssd1351__interface__driver.html#gaf966d34d373bd83bd4f04501161df1c4" target="_top" xlink:title="interface command &amp;&amp; data gpio deinit">
<polygon fill="white" stroke="#666666" points="281,-1540 161.5,-1540 161.5,-1508 281,-1508 281,-1540"/>
<text xml:space="preserve" text-anchor="start" x="169.5" y="-1526.5" font-family="Helvetica,sans-Serif" font-size="10.00">ssd1351_interface_cmd</text>
<text xml:space="preserve" text-anchor="middle" x="221.25" y="-1514.5" font-family="Helvetica,sans-Serif" font-size="10.00">_data_gpio_deinit</text>
</a>
</g>
</g>
<!-- Node1&#45;&gt;Node5 -->
<g id="edge4_Node000001_Node000005" class="edge">
<title>Node1&#45;&gt;Node5</title>
<g id="a_edge4_Node000001_Node000005"><a xlink:title=" ">
<path fill="none" stroke="#63b8ff" d="M57.31,-819.44C57.04,-897.41 58.94,-1388.64 148.75,-1499 149.84,-1500.34 151,-1501.61 152.24,-1502.81"/>
<polygon fill="#63b8ff" stroke="#63b8ff" points="149.96,-1505.47 160.01,-1508.85 154.26,-1499.95 149.96,-1505.47"/>
</a>
</g>
</g>
<!-- Node6 -->
<g id="Node000006" class="node">
<title>Node6</title>
<g id="a_Node000006"><a xlink:href="group__ssd1351__interface__driver.html#ga0a6674879145d54ed9a2bd921c40d0d7" target="_top" xlink:title="interface command &amp;&amp; data gpio init">
<polygon fill="white" stroke="#666666" points="281,-1490 161.5,-1490 161.5,-1458 281,-1458 281,-1490"/>
<text xml:space="preserve" text-anchor="start" x="169.5" y="-1476.5" font-family="Helvetica,sans-Serif" font-size="10.00">ssd1351_interface_cmd</text>
<text xml:space="preserve" text-anchor="middle" x="221.25" y="-1464.5" font-family="Helvetica,sans-Serif" font-size="10.00">_data_gpio_init</text>
</a>
</g>
</g>
<!-- Node1&#45;&gt;Node6 -->
<g id="edge5_Node000001_Node000006" class="edge">
<title>Node1&#45;&gt;Node6</title>
<g id="a_edge5_Node000001_Node000006"><a xlink:title=" ">
<path fill="none" stroke="#63b8ff" d="M57.43,-819.16C58.01,-892.98 64.99,-1347.13 148.75,-1449 149.85,-1450.33 151.02,-1451.6 152.25,-1452.79"/>
<polygon fill="#63b8ff" stroke="#63b8ff" points="150,-1455.47 160.05,-1458.82 154.28,-1449.93 150,-1455.47"/>
</a>
</g>
</g>
<!-- Node7 -->
<g id="Node000007" class="node">
<title>Node7</title>
<g id="a_Node000007"><a xlink:href="group__ssd1351__interface__driver.html#ga958b4c11cbb27a860d374fb3b1f9c4c8" target="_top" xlink:title="interface command &amp;&amp; data gpio write">
<polygon fill="white" stroke="#666666" points="281,-1440 161.5,-1440 161.5,-1408 281,-1408 281,-1440"/>
<text xml:space="preserve" text-anchor="start" x="169.5" y="-1426.5" font-family="Helvetica,sans-Serif" font-size="10.00">ssd1351_interface_cmd</text>
<text xml:space="preserve" text-anchor="middle" x="221.25" y="-1414.5" font-family="Helvetica,sans-Serif" font-size="10.00">_data_gpio_write</text>
</a>
</g>
</g>
<!-- Node1&#45;&gt;Node7 -->
<g id="edge6_Node000001_Node000007" class="edge">
<title>Node1&#45;&gt;Node7</title>
<g id="a_edge6_Node000001_Node000007"><a xlink:title=" ">
<path fill="none" stroke="#63b8ff" d="M57.56,-819.26C59.07,-890.03 71.18,-1305.78 148.75,-1399 149.85,-1400.33 151.03,-1401.58 152.28,-1402.77"/>
<polygon fill="#63b8ff" stroke="#63b8ff" points="150.03,-1405.46 160.1,-1408.78 154.3,-1399.91 150.03,-1405.46"/>
</a>
</g>
</g>
<!-- Node8 -->
<g id="Node000008" class="node">
<title>Node8</title>
<g id="a_Node000008"><a xlink:href="group__ssd1351__interface__driver.html#ga924dc6d41a20df3cb9c8f5e9a5ba3030" target="_top" xlink:title="interface print format data">
<polygon fill="white" stroke="#666666" points="284.75,-1390 157.75,-1390 157.75,-1358 284.75,-1358 284.75,-1390"/>
<text xml:space="preserve" text-anchor="start" x="165.75" y="-1376.5" font-family="Helvetica,sans-Serif" font-size="10.00">ssd1351_interface_debug</text>
<text xml:space="preserve" text-anchor="middle" x="221.25" y="-1364.5" font-family="Helvetica,sans-Serif" font-size="10.00">_print</text>
</a>
</g>
</g>
<!-- Node1&#45;&gt;Node8 -->
<g id="edge7_Node000001_Node000008" class="edge">
<title>Node1&#45;&gt;Node8</title>
<g id="a_edge7_Node000001_Node000008"><a xlink:title=" ">
<path fill="none" stroke="#63b8ff" d="M57.73,-819.24C60.22,-886.46 77.3,-1264.35 148.75,-1349 149.1,-1349.41 149.46,-1349.82 149.82,-1350.22"/>
<polygon fill="#63b8ff" stroke="#63b8ff" points="147.4,-1352.76 157.24,-1356.69 152,-1347.48 147.4,-1352.76"/>
</a>
</g>
</g>
<!-- Node9 -->
<g id="Node000009" class="node">
<title>Node9</title>
<g id="a_Node000009"><a xlink:href="group__ssd1351__interface__driver.html#ga24d312e7ab57a3bcbabd0e1b692be7c4" target="_top" xlink:title="interface delay ms">
<polygon fill="white" stroke="#666666" points="292.62,-1340 149.88,-1340 149.88,-1320 292.62,-1320 292.62,-1340"/>
<text xml:space="preserve" text-anchor="middle" x="221.25" y="-1326.5" font-family="Helvetica,sans-Serif" font-size="10.00">ssd1351_interface_delay_ms</text>
</a>
</g>
</g>
<!-- Node1&#45;&gt;Node9 -->
<g id="edge8_Node000001_Node000009" class="edge">
<title>Node1&#45;&gt;Node9</title>
<g id="a_edge8_Node000001_Node000009"><a xlink:title=" ">
<path fill="none" stroke="#63b8ff" d="M57.8,-819.42C60.63,-884.56 79.04,-1235.5 148.75,-1311 149.34,-1311.64 149.94,-1312.25 150.57,-1312.85"/>
<polygon fill="#63b8ff" stroke="#63b8ff" points="148.22,-1315.47 158.33,-1318.64 152.41,-1309.86 148.22,-1315.47"/>
</a>
</g>
</g>
<!-- Node10 -->
<g id="Node000010" class="node">
<title>Node10</title>
<g id="a_Node000010"><a xlink:href="group__ssd1351__interface__driver.html#ga9312a62574a80e08ca8f3a99f7ad7e45" target="_top" xlink:title="interface reset gpio deinit">
<polygon fill="white" stroke="#666666" points="282.5,-1302 160,-1302 160,-1270 282.5,-1270 282.5,-1302"/>
<text xml:space="preserve" text-anchor="start" x="168" y="-1288.5" font-family="Helvetica,sans-Serif" font-size="10.00">ssd1351_interface_reset</text>
<text xml:space="preserve" text-anchor="middle" x="221.25" y="-1276.5" font-family="Helvetica,sans-Serif" font-size="10.00">_gpio_deinit</text>
</a>
</g>
</g>
<!-- Node1&#45;&gt;Node10 -->
<g id="edge9_Node000001_Node000010" class="edge">
<title>Node1&#45;&gt;Node10</title>
<g id="a_edge9_Node000001_Node000010"><a xlink:title=" ">
<path fill="none" stroke="#63b8ff" d="M58.11,-819.49C62.59,-880.71 88.12,-1191.45 148.75,-1261 149.45,-1261.8 150.18,-1262.58 150.93,-1263.33"/>
<polygon fill="#63b8ff" stroke="#63b8ff" points="148.65,-1265.99 158.64,-1269.52 153.03,-1260.53 148.65,-1265.99"/>
</a>
</g>
</g>
<!-- Node11 -->
<g id="Node000011" class="node">
<title>Node11</title>
<g id="a_Node000011"><a xlink:href="group__ssd1351__interface__driver.html#ga4b923e61f8a11082031310fd70c781fa" target="_top" xlink:title="interface reset gpio init">
<polygon fill="white" stroke="#666666" points="282.5,-1252 160,-1252 160,-1220 282.5,-1220 282.5,-1252"/>
<text xml:space="preserve" text-anchor="start" x="168" y="-1238.5" font-family="Helvetica,sans-Serif" font-size="10.00">ssd1351_interface_reset</text>
<text xml:space="preserve" text-anchor="middle" x="221.25" y="-1226.5" font-family="Helvetica,sans-Serif" font-size="10.00">_gpio_init</text>
</a>
</g>
</g>
<!-- Node1&#45;&gt;Node11 -->
<g id="edge10_Node000001_Node000011" class="edge">
<title>Node1&#45;&gt;Node11</title>
<g id="a_edge10_Node000001_Node000011"><a xlink:title=" ">
<path fill="none" stroke="#63b8ff" d="M58.39,-819.43C64.12,-876.43 94.16,-1149.88 148.75,-1211 149.44,-1211.77 150.15,-1212.52 150.89,-1213.25"/>
<polygon fill="#63b8ff" stroke="#63b8ff" points="148.39,-1215.73 158.4,-1219.22 152.76,-1210.26 148.39,-1215.73"/>
</a>
</g>
</g>
<!-- Node12 -->
<g id="Node000012" class="node">
<title>Node12</title>
<g id="a_Node000012"><a xlink:href="group__ssd1351__interface__driver.html#ga9c134325786e266a30c218f486fb0116" target="_top" xlink:title="interface reset gpio write">
<polygon fill="white" stroke="#666666" points="282.5,-1202 160,-1202 160,-1170 282.5,-1170 282.5,-1202"/>
<text xml:space="preserve" text-anchor="start" x="168" y="-1188.5" font-family="Helvetica,sans-Serif" font-size="10.00">ssd1351_interface_reset</text>
<text xml:space="preserve" text-anchor="middle" x="221.25" y="-1176.5" font-family="Helvetica,sans-Serif" font-size="10.00">_gpio_write</text>
</a>
</g>
</g>
<!-- Node1&#45;&gt;Node12 -->
<g id="edge11_Node000001_Node000012" class="edge">
<title>Node1&#45;&gt;Node12</title>
<g id="a_edge11_Node000001_Node000012"><a xlink:title=" ">
<path fill="none" stroke="#63b8ff" d="M58.76,-819.5C65.91,-872.29 100.21,-1108.29 148.75,-1161 149.45,-1161.76 150.18,-1162.5 150.93,-1163.22"/>
<polygon fill="#63b8ff" stroke="#63b8ff" points="148.47,-1165.74 158.51,-1169.13 152.77,-1160.22 148.47,-1165.74"/>
</a>
</g>
</g>
<!-- Node13 -->
<g id="Node000013" class="node">
<title>Node13</title>
<g id="a_Node000013"><a xlink:href="group__ssd1351__interface__driver.html#gaeb6f9972cd2d309348e5251463e978ee" target="_top" xlink:title="interface spi bus deinit">
<polygon fill="white" stroke="#666666" points="278,-1152 164.5,-1152 164.5,-1120 278,-1120 278,-1152"/>
<text xml:space="preserve" text-anchor="start" x="172.5" y="-1138.5" font-family="Helvetica,sans-Serif" font-size="10.00">ssd1351_interface_spi</text>
<text xml:space="preserve" text-anchor="middle" x="221.25" y="-1126.5" font-family="Helvetica,sans-Serif" font-size="10.00">_deinit</text>
</a>
</g>
</g>
<!-- Node1&#45;&gt;Node13 -->
<g id="edge12_Node000001_Node000013" class="edge">
<title>Node1&#45;&gt;Node13</title>
<g id="a_edge12_Node000001_Node000013"><a xlink:title=" ">
<path fill="none" stroke="#63b8ff" d="M57.33,-819.49C57.75,-862.03 64.99,-1023.6 148.75,-1111 150.7,-1113.04 152.83,-1114.91 155.08,-1116.62"/>
<polygon fill="#63b8ff" stroke="#63b8ff" points="152.76,-1119.29 163.07,-1121.71 156.52,-1113.39 152.76,-1119.29"/>
</a>
</g>
</g>
<!-- Node14 -->
<g id="Node000014" class="node">
<title>Node14</title>
<g id="a_Node000014"><a xlink:href="group__ssd1351__interface__driver.html#ga8cf27e56b7977acb2b67c551945883d0" target="_top" xlink:title="interface spi bus init">
<polygon fill="white" stroke="#666666" points="287,-1102 155.5,-1102 155.5,-1082 287,-1082 287,-1102"/>
<text xml:space="preserve" text-anchor="middle" x="221.25" y="-1088.5" font-family="Helvetica,sans-Serif" font-size="10.00">ssd1351_interface_spi_init</text>
</a>
</g>
</g>
<!-- Node1&#45;&gt;Node14 -->
<g id="edge13_Node000001_Node000014" class="edge">
<title>Node1&#45;&gt;Node14</title>
<g id="a_edge13_Node000001_Node000014"><a xlink:title=" ">
<path fill="none" stroke="#63b8ff" d="M57.67,-819.42C59.39,-858.9 70.93,-1000.7 148.75,-1073 149.67,-1073.85 150.62,-1074.67 151.6,-1075.45"/>
<polygon fill="#63b8ff" stroke="#63b8ff" points="149.55,-1078.29 159.86,-1080.72 153.32,-1072.39 149.55,-1078.29"/>
</a>
</g>
</g>
<!-- Node15 -->
<g id="Node000015" class="node">
<title>Node15</title>
<g id="a_Node000015"><a xlink:href="group__ssd1351__interface__driver.html#gab3ad5b2b27b3b569e3a846bea63c2766" target="_top" xlink:title="interface spi bus write">
<polygon fill="white" stroke="#666666" points="278,-1064 164.5,-1064 164.5,-1032 278,-1032 278,-1064"/>
<text xml:space="preserve" text-anchor="start" x="172.5" y="-1050.5" font-family="Helvetica,sans-Serif" font-size="10.00">ssd1351_interface_spi</text>
<text xml:space="preserve" text-anchor="middle" x="221.25" y="-1038.5" font-family="Helvetica,sans-Serif" font-size="10.00">_write_cmd</text>
</a>
</g>
</g>
<!-- Node1&#45;&gt;Node15 -->
<g id="edge14_Node000001_Node000015" class="edge">
<title>Node1&#45;&gt;Node15</title>
<g id="a_edge14_Node000001_Node000015"><a xlink:title=" ">
<path fill="none" stroke="#63b8ff" d="M58.77,-819.14C63.98,-853.06 85.31,-963.68 148.75,-1023 150.58,-1024.71 152.54,-1026.31 154.6,-1027.8"/>
<polygon fill="#63b8ff" stroke="#63b8ff" points="152.48,-1030.61 162.83,-1032.87 156.15,-1024.65 152.48,-1030.61"/>
</a>
</g>
</g>
<!-- Node16 -->
<g id="Node000016" class="node">
<title>Node16</title>
<g id="a_Node000016"><a xlink:href="group__ssd1351__base__driver.html#gae77fc1fd6df40d6bc7198d59e2ab469e" target="_top" xlink:title="set the address increment">
<polygon fill="white" stroke="#666666" points="276.88,-1014 165.62,-1014 165.62,-982 276.88,-982 276.88,-1014"/>
<text xml:space="preserve" text-anchor="start" x="173.62" y="-1000.5" font-family="Helvetica,sans-Serif" font-size="10.00">ssd1351_set_address</text>
<text xml:space="preserve" text-anchor="middle" x="221.25" y="-988.5" font-family="Helvetica,sans-Serif" font-size="10.00">_increment</text>
</a>
</g>
</g>
<!-- Node1&#45;&gt;Node16 -->
<g id="edge15_Node000001_Node000016" class="edge">
<title>Node1&#45;&gt;Node16</title>
<g id="a_edge15_Node000001_Node000016"><a xlink:title=" ">
<path fill="none" stroke="#63b8ff" d="M60.21,-819.12C68.71,-847.59 96.62,-929.15 148.75,-973 150.83,-974.75 153.04,-976.38 155.35,-977.9"/>
<polygon fill="#63b8ff" stroke="#63b8ff" points="153.54,-980.9 163.96,-982.79 156.99,-974.81 153.54,-980.9"/>
</a>
</g>
</g>
<!-- Node17 -->
<g id="Node000017" class="node">
<title>Node17</title>
<g id="a_Node000017"><a xlink:href="group__ssd1351__base__driver.html#ga63ae7214c17947c423d32d0f940ac584" target="_top" xlink:title="set the display color depth">
<polygon fill="white" stroke="#666666" points="284.75,-964 157.75,-964 157.75,-944 284.75,-944 284.75,-964"/>
<text xml:space="preserve" text-anchor="middle" x="221.25" y="-950.5" font-family="Helvetica,sans-Serif" font-size="10.00">ssd1351_set_color_depth</text>
</a>
</g>
</g>
<!-- Node1&#45;&gt;Node17 -->
<g id="edge16_Node000001_Node000017" class="edge">
<title>Node1&#45;&gt;Node17</title>
<g id="a_edge16_Node000001_Node000017"><a xlink:title=" ">
<path fill="none" stroke="#63b8ff" d="M61.85,-819.33C72.87,-843.52 103.75,-904.11 148.75,-935 150.69,-936.33 152.73,-937.58 154.83,-938.73"/>
<polygon fill="#63b8ff" stroke="#63b8ff" points="153.14,-941.8 163.68,-942.88 156.11,-935.46 153.14,-941.8"/>
</a>
</g>
</g>
<!-- Node18 -->
<g id="Node000018" class="node">
<title>Node18</title>
<g id="a_Node000018"><a xlink:href="group__ssd1351__base__driver.html#ga1e78f8418410e5ce4cd5e690683a3f59" target="_top" xlink:title="set the color sequence">
<polygon fill="white" stroke="#666666" points="293.75,-926 148.75,-926 148.75,-906 293.75,-906 293.75,-926"/>
<text xml:space="preserve" text-anchor="middle" x="221.25" y="-912.5" font-family="Helvetica,sans-Serif" font-size="10.00">ssd1351_set_color_sequence</text>
</a>
</g>
</g>
<!-- Node1&#45;&gt;Node18 -->
<g id="edge17_Node000001_Node000018" class="edge">
<title>Node1&#45;&gt;Node18</title>
<g id="a_edge17_Node000001_Node000018"><a xlink:title=" ">
<path fill="none" stroke="#63b8ff" d="M65.19,-819.43C79.62,-837.93 112.29,-876.46 148.75,-897 151.58,-898.6 154.55,-900.06 157.61,-901.41"/>
<polygon fill="#63b8ff" stroke="#63b8ff" points="156.24,-904.63 166.83,-904.99 158.77,-898.11 156.24,-904.63"/>
</a>
</g>
</g>
<!-- Node19 -->
<g id="Node000019" class="node">
<title>Node19</title>
<g id="a_Node000019"><a xlink:href="group__ssd1351__base__driver.html#ga8aa9e8df322db7d1572dc0c964ffdbf8" target="_top" xlink:title="set the com split odd or even">
<polygon fill="white" stroke="#666666" points="280.62,-888 161.88,-888 161.88,-856 280.62,-856 280.62,-888"/>
<text xml:space="preserve" text-anchor="start" x="169.88" y="-874.5" font-family="Helvetica,sans-Serif" font-size="10.00">ssd1351_set_com_split</text>
<text xml:space="preserve" text-anchor="middle" x="221.25" y="-862.5" font-family="Helvetica,sans-Serif" font-size="10.00">_odd_even</text>
</a>
</g>
</g>
<!-- Node1&#45;&gt;Node19 -->
<g id="edge18_Node000001_Node000019" class="edge">
<title>Node1&#45;&gt;Node19</title>
<g id="a_edge18_Node000001_Node000019"><a xlink:title=" ">
<path fill="none" stroke="#63b8ff" d="M81.27,-819.38C99.62,-827.24 125.64,-838.16 148.75,-847 152.85,-848.57 157.09,-850.15 161.37,-851.72"/>
<polygon fill="#63b8ff" stroke="#63b8ff" points="160.02,-854.95 170.61,-855.05 162.4,-848.37 160.02,-854.95"/>
</a>
</g>
</g>
<!-- Node20 -->
<g id="Node000020" class="node">
<title>Node20</title>
<g id="a_Node000020"><a xlink:href="group__ssd1351__base__driver.html#ga63520dfd1103f2c6cc5b433ff6f465e9" target="_top" xlink:title="set the command">
<polygon fill="white" stroke="#666666" points="281,-838 161.5,-838 161.5,-818 281,-818 281,-838"/>
<text xml:space="preserve" text-anchor="middle" x="221.25" y="-824.5" font-family="Helvetica,sans-Serif" font-size="10.00">ssd1351_set_command</text>
</a>
</g>
</g>
<!-- Node1&#45;&gt;Node20 -->
<g id="edge19_Node000001_Node000020" class="edge">
<title>Node1&#45;&gt;Node20</title>
<g id="a_edge19_Node000001_Node000020"><a xlink:title=" ">
<path fill="none" stroke="#63b8ff" d="M112.97,-815.49C124.83,-816.87 137.49,-818.35 149.82,-819.78"/>
<polygon fill="#63b8ff" stroke="#63b8ff" points="149.17,-823.23 159.51,-820.91 149.98,-816.28 149.17,-823.23"/>
</a>
</g>
</g>
<!-- Node21 -->
<g id="Node000021" class="node">
<title>Node21</title>
<g id="a_Node000021"><a xlink:href="group__ssd1351__base__driver.html#ga3dac2ad66ba4a570cdf21d73b156c3b2" target="_top" xlink:title="set the display contrast">
<polygon fill="white" stroke="#666666" points="277.25,-800 165.25,-800 165.25,-780 277.25,-780 277.25,-800"/>
<text xml:space="preserve" text-anchor="middle" x="221.25" y="-786.5" font-family="Helvetica,sans-Serif" font-size="10.00">ssd1351_set_contrast</text>
</a>
</g>
</g>
<!-- Node1&#45;&gt;Node21 -->
<g id="edge20_Node000001_Node000021" class="edge">
<title>Node1&#45;&gt;Node21</title>
<g id="a_edge20_Node000001_Node000021"><a xlink:title=" ">
<path fill="none" stroke="#63b8ff" d="M112.97,-802.51C126.08,-800.99 140.17,-799.34 153.71,-797.76"/>
<polygon fill="#63b8ff" stroke="#63b8ff" points="153.87,-801.27 163.4,-796.63 153.06,-794.31 153.87,-801.27"/>
</a>
</g>
</g>
<!-- Node22 -->
<g id="Node000022" class="node">
<title>Node22</title>
<g id="a_Node000022"><a xlink:href="group__ssd1351__base__driver.html#gacb17080ac2024e77d0b2d61eacfa4cd2" target="_top" xlink:title="set the display mode">
<polygon fill="white" stroke="#666666" points="289.62,-762 152.88,-762 152.88,-742 289.62,-742 289.62,-762"/>
<text xml:space="preserve" text-anchor="middle" x="221.25" y="-748.5" font-family="Helvetica,sans-Serif" font-size="10.00">ssd1351_set_display_mode</text>
</a>
</g>
</g>
<!-- Node1&#45;&gt;Node22 -->
<g id="edge21_Node000001_Node000022" class="edge">
<title>Node1&#45;&gt;Node22</title>
<g id="a_edge21_Node000001_Node000022"><a xlink:title=" ">
<path fill="none" stroke="#63b8ff" d="M79.96,-798.61C98.25,-790.44 124.83,-779.11 148.75,-771 154.45,-769.07 160.46,-767.2 166.48,-765.45"/>
<polygon fill="#63b8ff" stroke="#63b8ff" points="167.11,-768.91 175.79,-762.83 165.21,-762.17 167.11,-768.91"/>
</a>
</g>
</g>
<!-- Node23 -->
<g id="Node000023" class="node">
<title>Node23</title>
<g id="a_Node000023"><a xlink:href="group__ssd1351__base__driver.html#ga5f65bb2a75e9ab5c73d18abd5b8c1825" target="_top" xlink:title="set the display offset">
<polygon fill="white" stroke="#666666" points="275,-724 167.5,-724 167.5,-692 275,-692 275,-724"/>
<text xml:space="preserve" text-anchor="start" x="175.5" y="-710.5" font-family="Helvetica,sans-Serif" font-size="10.00">ssd1351_set_display</text>
<text xml:space="preserve" text-anchor="middle" x="221.25" y="-698.5" font-family="Helvetica,sans-Serif" font-size="10.00">_offset</text>
</a>
</g>
</g>
<!-- Node1&#45;&gt;Node23 -->
<g id="edge22_Node000001_Node000023" class="edge">
<title>Node1&#45;&gt;Node23</title>
<g id="a_edge22_Node000001_Node000023"><a xlink:title=" ">
<path fill="none" stroke="#63b8ff" d="M67.41,-798.52C83.32,-782.44 115.89,-751.6 148.75,-733 151.39,-731.5 154.14,-730.07 156.96,-728.71"/>
<polygon fill="#63b8ff" stroke="#63b8ff" points="158.27,-731.95 165.98,-724.68 155.42,-725.56 158.27,-731.95"/>
</a>
</g>
</g>
<!-- Node24 -->
<g id="Node000024" class="node">
<title>Node24</title>
<g id="a_Node000024"><a xlink:href="group__ssd1351__base__driver.html#gac335f8cbd9bf4885304ad09c6681437a" target="_top" xlink:title="set the display start line">
<polygon fill="white" stroke="#666666" points="275,-674 167.5,-674 167.5,-642 275,-642 275,-674"/>
<text xml:space="preserve" text-anchor="start" x="175.5" y="-660.5" font-family="Helvetica,sans-Serif" font-size="10.00">ssd1351_set_display</text>
<text xml:space="preserve" text-anchor="middle" x="221.25" y="-648.5" font-family="Helvetica,sans-Serif" font-size="10.00">_start_line</text>
</a>
</g>
</g>
<!-- Node1&#45;&gt;Node24 -->
<g id="edge23_Node000001_Node000024" class="edge">
<title>Node1&#45;&gt;Node24</title>
<g id="a_edge23_Node000001_Node000024"><a xlink:title=" ">
<path fill="none" stroke="#63b8ff" d="M62.18,-798.54C73.7,-774.61 105.18,-715.43 148.75,-683 151.37,-681.05 154.16,-679.24 157.05,-677.57"/>
<polygon fill="#63b8ff" stroke="#63b8ff" points="158.56,-680.73 165.87,-673.07 155.37,-674.49 158.56,-680.73"/>
</a>
</g>
</g>
<!-- Node25 -->
<g id="Node000025" class="node">
<title>Node25</title>
<g id="a_Node000025"><a xlink:href="group__ssd1351__base__driver.html#ga9d05e320adaaffc5269ec8c680c5576f" target="_top" xlink:title="set the front clock oscillator frequency">
<polygon fill="white" stroke="#666666" points="283.62,-624 158.88,-624 158.88,-592 283.62,-592 283.62,-624"/>
<text xml:space="preserve" text-anchor="start" x="166.88" y="-610.5" font-family="Helvetica,sans-Serif" font-size="10.00">ssd1351_set_front_clock</text>
<text xml:space="preserve" text-anchor="middle" x="221.25" y="-598.5" font-family="Helvetica,sans-Serif" font-size="10.00">_oscillator_frequency</text>
</a>
</g>
</g>
<!-- Node1&#45;&gt;Node25 -->
<g id="edge24_Node000001_Node000025" class="edge">
<title>Node1&#45;&gt;Node25</title>
<g id="a_edge24_Node000001_Node000025"><a xlink:title=" ">
<path fill="none" stroke="#63b8ff" d="M59.87,-798.58C67.63,-768.45 94.12,-680.35 148.75,-633 149.69,-632.18 150.67,-631.39 151.66,-630.62"/>
<polygon fill="#63b8ff" stroke="#63b8ff" points="153.49,-633.61 159.96,-625.22 149.67,-627.75 153.49,-633.61"/>
</a>
</g>
</g>
<!-- Node26 -->
<g id="Node000026" class="node">
<title>Node26</title>
<g id="a_Node000026"><a xlink:href="group__ssd1351__base__driver.html#ga7a07dccbc4b7aceb752561422d45cc01" target="_top" xlink:title="set the gpio pin">
<polygon fill="white" stroke="#666666" points="268.62,-574 173.88,-574 173.88,-554 268.62,-554 268.62,-574"/>
<text xml:space="preserve" text-anchor="middle" x="221.25" y="-560.5" font-family="Helvetica,sans-Serif" font-size="10.00">ssd1351_set_gpio</text>
</a>
</g>
</g>
<!-- Node1&#45;&gt;Node26 -->
<g id="edge25_Node000001_Node000026" class="edge">
<title>Node1&#45;&gt;Node26</title>
<g id="a_edge25_Node000001_Node000026"><a xlink:title=" ">
<path fill="none" stroke="#63b8ff" d="M58.35,-798.6C62.28,-762.8 80.21,-643.49 148.75,-583 153.03,-579.22 157.99,-576.18 163.25,-573.73"/>
<polygon fill="#63b8ff" stroke="#63b8ff" points="164.16,-577.13 172.24,-570.28 161.65,-570.6 164.16,-577.13"/>
</a>
</g>
</g>
<!-- Node27 -->
<g id="Node000027" class="node">
<title>Node27</title>
<g id="a_Node000027"><a xlink:href="group__ssd1351__base__driver.html#gafc7cbe0f53f7925ab008de4705539bf9" target="_top" xlink:title="set the gray scale pulse width">
<polygon fill="white" stroke="#666666" points="283.25,-536 159.25,-536 159.25,-504 283.25,-504 283.25,-536"/>
<text xml:space="preserve" text-anchor="start" x="167.25" y="-522.5" font-family="Helvetica,sans-Serif" font-size="10.00">ssd1351_set_gray_scale</text>
<text xml:space="preserve" text-anchor="middle" x="221.25" y="-510.5" font-family="Helvetica,sans-Serif" font-size="10.00">_pulse_width</text>
</a>
</g>
</g>
<!-- Node1&#45;&gt;Node27 -->
<g id="edge26_Node000001_Node000027" class="edge">
<title>Node1&#45;&gt;Node27</title>
<g id="a_edge26_Node000001_Node000027"><a xlink:title=" ">
<path fill="none" stroke="#63b8ff" d="M57.85,-798.76C60.2,-759.95 73.76,-620.23 148.75,-545 149.36,-544.39 149.98,-543.79 150.62,-543.21"/>
<polygon fill="#63b8ff" stroke="#63b8ff" points="152.55,-546.14 158.45,-537.35 148.35,-540.54 152.55,-546.14"/>
</a>
</g>
</g>
<!-- Node28 -->
<g id="Node000028" class="node">
<title>Node28</title>
<g id="a_Node000028"><a xlink:href="group__ssd1351__base__driver.html#ga0156a8bda6b53798b3580ebb4d4956d8" target="_top" xlink:title="set the master contrast current">
<polygon fill="white" stroke="#666666" points="274.62,-486 167.88,-486 167.88,-454 274.62,-454 274.62,-486"/>
<text xml:space="preserve" text-anchor="start" x="175.88" y="-472.5" font-family="Helvetica,sans-Serif" font-size="10.00">ssd1351_set_master</text>
<text xml:space="preserve" text-anchor="middle" x="221.25" y="-460.5" font-family="Helvetica,sans-Serif" font-size="10.00">_contrast_current</text>
</a>
</g>
</g>
<!-- Node1&#45;&gt;Node28 -->
<g id="edge27_Node000001_Node000028" class="edge">
<title>Node1&#45;&gt;Node28</title>
<g id="a_edge27_Node000001_Node000028"><a xlink:title=" ">
<path fill="none" stroke="#63b8ff" d="M57.19,-798.7C57,-755.43 62.03,-586.46 148.75,-495 151.46,-492.15 154.51,-489.62 157.78,-487.38"/>
<polygon fill="#63b8ff" stroke="#63b8ff" points="159.27,-490.56 166.2,-482.55 155.79,-484.49 159.27,-490.56"/>
</a>
</g>
</g>
<!-- Node29 -->
<g id="Node000029" class="node">
<title>Node29</title>
<g id="a_Node000029"><a xlink:href="group__ssd1351__base__driver.html#gae3dab5fb1674ea80bc092d7fea6c4869" target="_top" xlink:title="set the mux ratio">
<polygon fill="white" stroke="#666666" points="281,-436 161.5,-436 161.5,-416 281,-416 281,-436"/>
<text xml:space="preserve" text-anchor="middle" x="221.25" y="-422.5" font-family="Helvetica,sans-Serif" font-size="10.00">ssd1351_set_mux_ratio</text>
</a>
</g>
</g>
<!-- Node1&#45;&gt;Node29 -->
<g id="edge28_Node000001_Node000029" class="edge">
<title>Node1&#45;&gt;Node29</title>
<g id="a_edge28_Node000001_Node000029"><a xlink:title=" ">
<path fill="none" stroke="#63b8ff" d="M58.54,-798.79C64.86,-745.3 96.59,-497.88 148.75,-445 149.76,-443.97 150.83,-443 151.93,-442.07"/>
<polygon fill="#63b8ff" stroke="#63b8ff" points="153.5,-445.23 159.89,-436.78 149.62,-439.41 153.5,-445.23"/>
</a>
</g>
</g>
<!-- Node30 -->
<g id="Node000030" class="node">
<title>Node30</title>
<g id="a_Node000030"><a xlink:href="group__ssd1351__base__driver.html#ga7414698f9b10c83db37737c10c62a99f" target="_top" xlink:title="set the interface parallel bits">
<polygon fill="white" stroke="#666666" points="285.5,-398 157,-398 157,-378 285.5,-378 285.5,-398"/>
<text xml:space="preserve" text-anchor="middle" x="221.25" y="-384.5" font-family="Helvetica,sans-Serif" font-size="10.00">ssd1351_set_parallel_bits</text>
</a>
</g>
</g>
<!-- Node1&#45;&gt;Node30 -->
<g id="edge29_Node000001_Node000030" class="edge">
<title>Node1&#45;&gt;Node30</title>
<g id="a_edge29_Node000001_Node000030"><a xlink:title=" ">
<path fill="none" stroke="#63b8ff" d="M58.28,-798.87C63.51,-742.32 91.74,-466.12 148.75,-407 149.47,-406.25 150.22,-405.53 150.99,-404.84"/>
<polygon fill="#63b8ff" stroke="#63b8ff" points="152.68,-407.93 158.81,-399.29 148.63,-402.22 152.68,-407.93"/>
</a>
</g>
</g>
<!-- Node31 -->
<g id="Node000031" class="node">
<title>Node31</title>
<g id="a_Node000031"><a xlink:href="group__ssd1351__base__driver.html#gaad7cac9c8e2466535bccda6061bfb1e5" target="_top" xlink:title="set the phase period">
<polygon fill="white" stroke="#666666" points="288.5,-360 154,-360 154,-340 288.5,-340 288.5,-360"/>
<text xml:space="preserve" text-anchor="middle" x="221.25" y="-346.5" font-family="Helvetica,sans-Serif" font-size="10.00">ssd1351_set_phase_period</text>
</a>
</g>
</g>
<!-- Node1&#45;&gt;Node31 -->
<g id="edge30_Node000001_Node000031" class="edge">
<title>Node1&#45;&gt;Node31</title>
<g id="a_edge30_Node000001_Node000031"><a xlink:title=" ">
<path fill="none" stroke="#63b8ff" d="M58.07,-798.72C62.36,-738.72 86.94,-434.3 148.75,-369 149.46,-368.24 150.21,-367.52 150.97,-366.82"/>
<polygon fill="#63b8ff" stroke="#63b8ff" points="152.67,-369.91 158.74,-361.23 148.58,-364.23 152.67,-369.91"/>
</a>
</g>
</g>
<!-- Node32 -->
<g id="Node000032" class="node">
<title>Node32</title>
<g id="a_Node000032"><a xlink:href="group__ssd1351__base__driver.html#gaa6575dd6ecdb3698c2ac70f6727c9679" target="_top" xlink:title="set the pre charge voltage">
<polygon fill="white" stroke="#666666" points="283.62,-322 158.88,-322 158.88,-290 283.62,-290 283.62,-322"/>
<text xml:space="preserve" text-anchor="start" x="166.88" y="-308.5" font-family="Helvetica,sans-Serif" font-size="10.00">ssd1351_set_pre_charge</text>
<text xml:space="preserve" text-anchor="middle" x="221.25" y="-296.5" font-family="Helvetica,sans-Serif" font-size="10.00">_voltage</text>
</a>
</g>
</g>
<!-- Node1&#45;&gt;Node32 -->
<g id="edge31_Node000001_Node000032" class="edge">
<title>Node1&#45;&gt;Node32</title>
<g id="a_edge31_Node000001_Node000032"><a xlink:title=" ">
<path fill="none" stroke="#63b8ff" d="M57.97,-798.74C61.8,-736.06 84.88,-405.06 148.75,-331 149.1,-330.59 149.47,-330.19 149.83,-329.79"/>
<polygon fill="#63b8ff" stroke="#63b8ff" points="152.01,-332.54 157.31,-323.37 147.44,-327.23 152.01,-332.54"/>
</a>
</g>
</g>
<!-- Node33 -->
<g id="Node000033" class="node">
<title>Node33</title>
<g id="a_Node000033"><a xlink:href="group__ssd1351__base__driver.html#ga0b43bfd5641446bfd202a8a9f249b54a" target="_top" xlink:title="set the scan mode">
<polygon fill="white" stroke="#666666" points="284.75,-272 157.75,-272 157.75,-252 284.75,-252 284.75,-272"/>
<text xml:space="preserve" text-anchor="middle" x="221.25" y="-258.5" font-family="Helvetica,sans-Serif" font-size="10.00">ssd1351_set_scan_mode</text>
</a>
</g>
</g>
<!-- Node1&#45;&gt;Node33 -->
<g id="edge32_Node000001_Node000033" class="edge">
<title>Node1&#45;&gt;Node33</title>
<g id="a_edge32_Node000001_Node000033"><a xlink:title=" ">
<path fill="none" stroke="#63b8ff" d="M57.68,-798.92C59.91,-732.75 75.57,-360.95 148.75,-281 149.34,-280.36 149.94,-279.74 150.56,-279.14"/>
<polygon fill="#63b8ff" stroke="#63b8ff" points="152.41,-282.13 158.3,-273.33 148.2,-276.54 152.41,-282.13"/>
</a>
</g>
</g>
<!-- Node34 -->
<g id="Node000034" class="node">
<title>Node34</title>
<g id="a_Node000034"><a xlink:href="group__ssd1351__base__driver.html#ga9489f71c69ce572fa79acdb0ac0a84a2" target="_top" xlink:title="set the second pre charge period">
<polygon fill="white" stroke="#666666" points="275.38,-234 167.12,-234 167.12,-202 275.38,-202 275.38,-234"/>
<text xml:space="preserve" text-anchor="start" x="175.12" y="-220.5" font-family="Helvetica,sans-Serif" font-size="10.00">ssd1351_set_second</text>
<text xml:space="preserve" text-anchor="middle" x="221.25" y="-208.5" font-family="Helvetica,sans-Serif" font-size="10.00">_pre_charge_period</text>
</a>
</g>
</g>
<!-- Node1&#45;&gt;Node34 -->
<g id="edge33_Node000001_Node000034" class="edge">
<title>Node1&#45;&gt;Node34</title>
<g id="a_edge33_Node000001_Node000034"><a xlink:title=" ">
<path fill="none" stroke="#63b8ff" d="M57.64,-798.72C59.61,-729.54 74.13,-332.09 148.75,-243 151.2,-240.08 154.01,-237.49 157.07,-235.21"/>
<polygon fill="#63b8ff" stroke="#63b8ff" points="158.87,-238.22 165.59,-230.03 155.23,-232.24 158.87,-238.22"/>
</a>
</g>
</g>
<!-- Node35 -->
<g id="Node000035" class="node">
<title>Node35</title>
<g id="a_Node000035"><a xlink:href="group__ssd1351__base__driver.html#gadcf5ec2513959b74a9937d4efd8f28e1" target="_top" xlink:title="set the seg0 map">
<polygon fill="white" stroke="#666666" points="282.12,-184 160.38,-184 160.38,-164 282.12,-164 282.12,-184"/>
<text xml:space="preserve" text-anchor="middle" x="221.25" y="-170.5" font-family="Helvetica,sans-Serif" font-size="10.00">ssd1351_set_seg0_map</text>
</a>
</g>
</g>
<!-- Node1&#45;&gt;Node35 -->
<g id="edge34_Node000001_Node000035" class="edge">
<title>Node1&#45;&gt;Node35</title>
<g id="a_edge34_Node000001_Node000035"><a xlink:title=" ">
<path fill="none" stroke="#63b8ff" d="M57.41,-798.7C57.89,-725.75 64.29,-287.53 148.75,-193 149.46,-192.2 150.2,-191.44 150.97,-190.71"/>
<polygon fill="#63b8ff" stroke="#63b8ff" points="152.92,-193.62 158.87,-184.85 148.75,-187.99 152.92,-193.62"/>
</a>
</g>
</g>
<!-- Node36 -->
<g id="Node000036" class="node">
<title>Node36</title>
<g id="a_Node000036"><a xlink:href="group__ssd1351__base__driver.html#gafcd1e8e5778a67dbe6f13862dc31cc8a" target="_top" xlink:title="set the segment low voltage">
<polygon fill="white" stroke="#666666" points="278.38,-146 164.12,-146 164.12,-114 278.38,-114 278.38,-146"/>
<text xml:space="preserve" text-anchor="start" x="172.12" y="-132.5" font-family="Helvetica,sans-Serif" font-size="10.00">ssd1351_set_segment</text>
<text xml:space="preserve" text-anchor="middle" x="221.25" y="-120.5" font-family="Helvetica,sans-Serif" font-size="10.00">_low_voltage</text>
</a>
</g>
</g>
<!-- Node1&#45;&gt;Node36 -->
<g id="edge35_Node000001_Node000036" class="edge">
<title>Node1&#45;&gt;Node36</title>
<g id="a_edge35_Node000001_Node000036"><a xlink:title=" ">
<path fill="none" stroke="#63b8ff" d="M57.39,-798.62C57.74,-723.2 63.35,-259.18 148.75,-155 150.57,-152.78 152.61,-150.75 154.8,-148.9"/>
<polygon fill="#63b8ff" stroke="#63b8ff" points="156.44,-152.02 162.71,-143.49 152.49,-146.25 156.44,-152.02"/>
</a>
</g>
</g>
<!-- Node37 -->
<g id="Node000037" class="node">
<title>Node37</title>
<g id="a_Node000037"><a xlink:href="group__ssd1351__base__driver.html#gad8322c0f07059141b0f622d33e750b64" target="_top" xlink:title="set the select vdd">
<polygon fill="white" stroke="#666666" points="283.25,-96 159.25,-96 159.25,-76 283.25,-76 283.25,-96"/>
<text xml:space="preserve" text-anchor="middle" x="221.25" y="-82.5" font-family="Helvetica,sans-Serif" font-size="10.00">ssd1351_set_select_vdd</text>
</a>
</g>
</g>
<!-- Node1&#45;&gt;Node37 -->
<g id="edge36_Node000001_Node000037" class="edge">
<title>Node1&#45;&gt;Node37</title>
<g id="a_edge36_Node000001_Node000037"><a xlink:title=" ">
<path fill="none" stroke="#63b8ff" d="M57.2,-798.53C56.1,-719.31 52.95,-214.21 148.75,-105 149.21,-104.47 149.69,-103.96 150.18,-103.46"/>
<polygon fill="#63b8ff" stroke="#63b8ff" points="152.15,-106.36 157.83,-97.41 147.82,-100.86 152.15,-106.36"/>
</a>
</g>
</g>
<!-- Node38 -->
<g id="Node000038" class="node">
<title>Node38</title>
<g id="a_Node000038"><a xlink:href="group__ssd1351__base__driver.html#gae2626858ff3be0d8845807fefb4d4ba7" target="_top" xlink:title="set the sleep mode">
<polygon fill="white" stroke="#666666" points="285.88,-58 156.62,-58 156.62,-38 285.88,-38 285.88,-58"/>
<text xml:space="preserve" text-anchor="middle" x="221.25" y="-44.5" font-family="Helvetica,sans-Serif" font-size="10.00">ssd1351_set_sleep_mode</text>
</a>
</g>
</g>
<!-- Node1&#45;&gt;Node38 -->
<g id="edge37_Node000001_Node000038" class="edge">
<title>Node1&#45;&gt;Node38</title>
<g id="a_edge37_Node000001_Node000038"><a xlink:title=" ">
<path fill="none" stroke="#63b8ff" d="M57.96,-798.58C62.86,-712.79 98.17,-125.04 148.75,-67 149.21,-66.47 149.69,-65.95 150.17,-65.45"/>
<polygon fill="#63b8ff" stroke="#63b8ff" points="152.15,-68.35 157.81,-59.39 147.8,-62.87 152.15,-68.35"/>
</a>
</g>
</g>
<!-- Node39 -->
<g id="Node000039" class="node">
<title>Node39</title>
<g id="a_Node000039"><a xlink:href="group__ssd1351__base__driver.html#gaaba8d918faded85b5448a9f44dbb4746" target="_top" xlink:title="set the vcomh voltage">
<polygon fill="white" stroke="#666666" points="292.62,-20 149.88,-20 149.88,0 292.62,0 292.62,-20"/>
<text xml:space="preserve" text-anchor="middle" x="221.25" y="-6.5" font-family="Helvetica,sans-Serif" font-size="10.00">ssd1351_set_vcomh_voltage</text>
</a>
</g>
</g>
<!-- Node1&#45;&gt;Node39 -->
<g id="edge38_Node000001_Node000039" class="edge">
<title>Node1&#45;&gt;Node39</title>
<g id="a_edge38_Node000001_Node000039"><a xlink:title=" ">
<path fill="none" stroke="#63b8ff" d="M57.89,-798.61C62.37,-710.49 95.69,-90.25 148.75,-29 149.21,-28.47 149.68,-27.95 150.17,-27.45"/>
<polygon fill="#63b8ff" stroke="#63b8ff" points="152.15,-30.35 157.79,-21.38 147.79,-24.87 152.15,-30.35"/>
</a>
</g>
</g>
</g>
</svg>
